<?xml version="1.0" encoding="UTF-8" standalone="no"?>
<!-- Created with Inkscape (http://www.inkscape.org/) -->

<svg
   version="1.1"
   id="svg2"
   xml:space="preserve"
   width="3.3in"
   height="3.0999999in"
   viewBox="0 0 316.8 297.6"
   sodipodi:docname="Figure_1_meltR.A_usage_and_results.svg"
   inkscape:version="1.1.2 (0a00cf5339, 2022-02-04)"
   xmlns:inkscape="http://www.inkscape.org/namespaces/inkscape"
   xmlns:sodipodi="http://sodipodi.sourceforge.net/DTD/sodipodi-0.dtd"
   xmlns="http://www.w3.org/2000/svg"
   xmlns:svg="http://www.w3.org/2000/svg"><defs
     id="defs6"><marker
       style="overflow:visible"
       id="DotM"
       refX="0"
       refY="0"
       orient="auto"
       inkscape:stockid="DotM"
       inkscape:isstock="true"><path
         transform="matrix(0.4,0,0,0.4,2.96,0.4)"
         style="fill:context-stroke;fill-rule:evenodd;stroke:context-stroke;stroke-width:1pt"
         d="m -2.5,-1 c 0,2.76 -2.24,5 -5,5 -2.76,0 -5,-2.24 -5,-5 0,-2.76 2.24,-5 5,-5 2.76,0 5,2.24 5,5 z"
         id="path78269" /></marker><marker
       style="overflow:visible"
       id="DotS"
       refX="0"
       refY="0"
       orient="auto"
       inkscape:stockid="DotS"
       inkscape:isstock="true"><path
         transform="matrix(0.2,0,0,0.2,1.48,0.2)"
         style="fill:context-stroke;fill-rule:evenodd;stroke:context-stroke;stroke-width:1pt"
         d="m -2.5,-1 c 0,2.76 -2.24,5 -5,5 -2.76,0 -5,-2.24 -5,-5 0,-2.76 2.24,-5 5,-5 2.76,0 5,2.24 5,5 z"
         id="path78272" /></marker><marker
       style="overflow:visible"
       id="Arrow2Send"
       refX="0"
       refY="0"
       orient="auto"
       inkscape:stockid="Arrow2Send"
       inkscape:isstock="true"><path
         transform="matrix(-0.3,0,0,-0.3,0.69,0)"
         d="M 8.7185878,4.0337352 -2.2072895,0.01601326 8.7185884,-4.0017078 c -1.7454984,2.3720609 -1.7354408,5.6174519 -6e-7,8.035443 z"
         style="fill:context-stroke;fill-rule:evenodd;stroke:context-stroke;stroke-width:0.625;stroke-linejoin:round"
         id="path78238" /></marker><marker
       style="overflow:visible"
       id="Arrow2Mend"
       refX="0"
       refY="0"
       orient="auto"
       inkscape:stockid="Arrow2Mend"
       inkscape:isstock="true"><path
         transform="scale(-0.6)"
         d="M 8.7185878,4.0337352 -2.2072895,0.01601326 8.7185884,-4.0017078 c -1.7454984,2.3720609 -1.7354408,5.6174519 -6e-7,8.035443 z"
         style="fill:context-stroke;fill-rule:evenodd;stroke:context-stroke;stroke-width:0.625;stroke-linejoin:round"
         id="path78232" /></marker><marker
       style="overflow:visible"
       id="Arrow2Lend"
       refX="0"
       refY="0"
       orient="auto"
       inkscape:stockid="Arrow2Lend"
       inkscape:isstock="true"><path
         transform="matrix(-1.1,0,0,-1.1,-1.1,0)"
         d="M 8.7185878,4.0337352 -2.2072895,0.01601326 8.7185884,-4.0017078 c -1.7454984,2.3720609 -1.7354408,5.6174519 -6e-7,8.035443 z"
         style="fill:context-stroke;fill-rule:evenodd;stroke:context-stroke;stroke-width:0.625;stroke-linejoin:round"
         id="path78226" /></marker><clipPath
       clipPathUnits="userSpaceOnUse"
       id="clipPath1750"><rect
         style="fill:#000000;stroke-width:1.88504;stroke-linejoin:round"
         id="rect1752"
         width="229.61092"
         height="67.513794"
         x="-299.71939"
         y="-320.6738" /></clipPath><clipPath
       clipPathUnits="userSpaceOnUse"
       id="clipPath1754"><rect
         style="fill:#000000;stroke-width:1.88504;stroke-linejoin:round"
         id="rect1756"
         width="229.61092"
         height="67.513794"
         x="3.7896063"
         y="-704.6438" /></clipPath><clipPath
       clipPathUnits="userSpaceOnUse"
       id="clipPath2249"><rect
         style="fill:#000000;stroke-width:1.88504;stroke-linejoin:round"
         id="rect2251"
         width="217.58655"
         height="116.27122"
         x="36.878963"
         y="-581.71899" /></clipPath><clipPath
       clipPathUnits="userSpaceOnUse"
       id="clipPath2714"><rect
         style="fill:#000000;stroke-width:5.013;stroke-linejoin:round"
         id="rect2716"
         width="310.55969"
         height="52.178959"
         x="435.4628"
         y="-484.78568" /></clipPath><clipPath
       clipPathUnits="userSpaceOnUse"
       id="clipPath2902"><rect
         style="fill:#000000;stroke-width:3.35793;stroke-linejoin:round"
         id="rect2904"
         width="379.7142"
         height="43.450039"
         x="-6.6579461"
         y="-217.29852" /></clipPath><clipPath
       clipPathUnits="userSpaceOnUse"
       id="clipPath7817"><rect
         style="fill:#698cdb;fill-opacity:1;stroke:none;stroke-width:1.88504;stroke-linejoin:round;stroke-opacity:0.843137"
         id="rect7819"
         width="359.40277"
         height="262.78741"
         x="81.925194"
         y="-639.17291"
         transform="scale(1,-1)" /></clipPath><marker
       style="overflow:visible"
       id="DotM-3"
       refX="0"
       refY="0"
       orient="auto"
       inkscape:stockid="DotM"
       inkscape:isstock="true"><path
         transform="matrix(0.4,0,0,0.4,2.96,0.4)"
         style="fill:context-stroke;fill-rule:evenodd;stroke:context-stroke;stroke-width:1pt"
         d="m -2.5,-1 c 0,2.76 -2.24,5 -5,5 -2.76,0 -5,-2.24 -5,-5 0,-2.76 2.24,-5 5,-5 2.76,0 5,2.24 5,5 z"
         id="path78269-8" /></marker><marker
       style="overflow:visible"
       id="marker86493"
       refX="0"
       refY="0"
       orient="auto"
       inkscape:stockid="DotM"
       inkscape:isstock="true"><path
         transform="matrix(0.4,0,0,0.4,2.96,0.4)"
         style="fill:context-stroke;fill-rule:evenodd;stroke:context-stroke;stroke-width:1pt"
         d="m -2.5,-1 c 0,2.76 -2.24,5 -5,5 -2.76,0 -5,-2.24 -5,-5 0,-2.76 2.24,-5 5,-5 2.76,0 5,2.24 5,5 z"
         id="path86491" /></marker><marker
       style="overflow:visible"
       id="DotM-2"
       refX="0"
       refY="0"
       orient="auto"
       inkscape:stockid="DotM"
       inkscape:isstock="true"><path
         transform="matrix(0.4,0,0,0.4,2.96,0.4)"
         style="fill:context-stroke;fill-rule:evenodd;stroke:context-stroke;stroke-width:1pt"
         d="m -2.5,-1 c 0,2.76 -2.24,5 -5,5 -2.76,0 -5,-2.24 -5,-5 0,-2.76 2.24,-5 5,-5 2.76,0 5,2.24 5,5 z"
         id="path78269-2" /></marker><marker
       style="overflow:visible"
       id="marker86493-2"
       refX="0"
       refY="0"
       orient="auto"
       inkscape:stockid="DotM"
       inkscape:isstock="true"><path
         transform="matrix(0.4,0,0,0.4,2.96,0.4)"
         style="fill:context-stroke;fill-rule:evenodd;stroke:context-stroke;stroke-width:1pt"
         d="m -2.5,-1 c 0,2.76 -2.24,5 -5,5 -2.76,0 -5,-2.24 -5,-5 0,-2.76 2.24,-5 5,-5 2.76,0 5,2.24 5,5 z"
         id="path86491-7" /></marker><marker
       style="overflow:visible"
       id="DotM-34"
       refX="0"
       refY="0"
       orient="auto"
       inkscape:stockid="DotM"
       inkscape:isstock="true"><path
         transform="matrix(0.4,0,0,0.4,2.96,0.4)"
         style="fill:context-stroke;fill-rule:evenodd;stroke:context-stroke;stroke-width:1pt"
         d="m -2.5,-1 c 0,2.76 -2.24,5 -5,5 -2.76,0 -5,-2.24 -5,-5 0,-2.76 2.24,-5 5,-5 2.76,0 5,2.24 5,5 z"
         id="path78269-6" /></marker><marker
       style="overflow:visible"
       id="marker86493-3"
       refX="0"
       refY="0"
       orient="auto"
       inkscape:stockid="DotM"
       inkscape:isstock="true"><path
         transform="matrix(0.4,0,0,0.4,2.96,0.4)"
         style="fill:context-stroke;fill-rule:evenodd;stroke:context-stroke;stroke-width:1pt"
         d="m -2.5,-1 c 0,2.76 -2.24,5 -5,5 -2.76,0 -5,-2.24 -5,-5 0,-2.76 2.24,-5 5,-5 2.76,0 5,2.24 5,5 z"
         id="path86491-6" /></marker><marker
       style="overflow:visible"
       id="DotM-344"
       refX="0"
       refY="0"
       orient="auto"
       inkscape:stockid="DotM"
       inkscape:isstock="true"><path
         transform="matrix(0.4,0,0,0.4,2.96,0.4)"
         style="fill:context-stroke;fill-rule:evenodd;stroke:context-stroke;stroke-width:1pt"
         d="m -2.5,-1 c 0,2.76 -2.24,5 -5,5 -2.76,0 -5,-2.24 -5,-5 0,-2.76 2.24,-5 5,-5 2.76,0 5,2.24 5,5 z"
         id="path78269-3" /></marker><marker
       style="overflow:visible"
       id="marker86493-9"
       refX="0"
       refY="0"
       orient="auto"
       inkscape:stockid="DotM"
       inkscape:isstock="true"><path
         transform="matrix(0.4,0,0,0.4,2.96,0.4)"
         style="fill:context-stroke;fill-rule:evenodd;stroke:context-stroke;stroke-width:1pt"
         d="m -2.5,-1 c 0,2.76 -2.24,5 -5,5 -2.76,0 -5,-2.24 -5,-5 0,-2.76 2.24,-5 5,-5 2.76,0 5,2.24 5,5 z"
         id="path86491-72" /></marker><marker
       style="overflow:visible"
       id="DotS-3"
       refX="0"
       refY="0"
       orient="auto"
       inkscape:stockid="DotS"
       inkscape:isstock="true"><path
         transform="matrix(0.2,0,0,0.2,1.48,0.2)"
         style="fill:context-stroke;fill-rule:evenodd;stroke:context-stroke;stroke-width:1pt"
         d="m -2.5,-1 c 0,2.76 -2.24,5 -5,5 -2.76,0 -5,-2.24 -5,-5 0,-2.76 2.24,-5 5,-5 2.76,0 5,2.24 5,5 z"
         id="path78272-8" /></marker><marker
       style="overflow:visible"
       id="marker119477"
       refX="0"
       refY="0"
       orient="auto"
       inkscape:stockid="DotS"
       inkscape:isstock="true"><path
         transform="matrix(0.2,0,0,0.2,1.48,0.2)"
         style="fill:context-stroke;fill-rule:evenodd;stroke:context-stroke;stroke-width:1pt"
         d="m -2.5,-1 c 0,2.76 -2.24,5 -5,5 -2.76,0 -5,-2.24 -5,-5 0,-2.76 2.24,-5 5,-5 2.76,0 5,2.24 5,5 z"
         id="path119475" /></marker><marker
       style="overflow:visible"
       id="DotS-3-1"
       refX="0"
       refY="0"
       orient="auto"
       inkscape:stockid="DotS"
       inkscape:isstock="true"><path
         transform="matrix(0.2,0,0,0.2,1.48,0.2)"
         style="fill:context-stroke;fill-rule:evenodd;stroke:context-stroke;stroke-width:1pt"
         d="m -2.5,-1 c 0,2.76 -2.24,5 -5,5 -2.76,0 -5,-2.24 -5,-5 0,-2.76 2.24,-5 5,-5 2.76,0 5,2.24 5,5 z"
         id="path78272-8-0" /></marker><marker
       style="overflow:visible"
       id="marker119657"
       refX="0"
       refY="0"
       orient="auto"
       inkscape:stockid="DotS"
       inkscape:isstock="true"><path
         transform="matrix(0.2,0,0,0.2,1.48,0.2)"
         style="fill:context-stroke;fill-rule:evenodd;stroke:context-stroke;stroke-width:1pt"
         d="m -2.5,-1 c 0,2.76 -2.24,5 -5,5 -2.76,0 -5,-2.24 -5,-5 0,-2.76 2.24,-5 5,-5 2.76,0 5,2.24 5,5 z"
         id="path119655" /></marker><marker
       style="overflow:visible"
       id="DotS-3-1-7"
       refX="0"
       refY="0"
       orient="auto"
       inkscape:stockid="DotS"
       inkscape:isstock="true"><path
         transform="matrix(0.2,0,0,0.2,1.48,0.2)"
         style="fill:context-stroke;fill-rule:evenodd;stroke:context-stroke;stroke-width:1pt"
         d="m -2.5,-1 c 0,2.76 -2.24,5 -5,5 -2.76,0 -5,-2.24 -5,-5 0,-2.76 2.24,-5 5,-5 2.76,0 5,2.24 5,5 z"
         id="path78272-8-0-6" /></marker><marker
       style="overflow:visible"
       id="marker119855"
       refX="0"
       refY="0"
       orient="auto"
       inkscape:stockid="DotS"
       inkscape:isstock="true"><path
         transform="matrix(0.2,0,0,0.2,1.48,0.2)"
         style="fill:context-stroke;fill-rule:evenodd;stroke:context-stroke;stroke-width:1pt"
         d="m -2.5,-1 c 0,2.76 -2.24,5 -5,5 -2.76,0 -5,-2.24 -5,-5 0,-2.76 2.24,-5 5,-5 2.76,0 5,2.24 5,5 z"
         id="path119853" /></marker></defs><sodipodi:namedview
     id="namedview4"
     pagecolor="#ffffff"
     bordercolor="#666666"
     borderopacity="1.0"
     inkscape:pageshadow="2"
     inkscape:pageopacity="0.0"
     inkscape:pagecheckerboard="0"
     showgrid="false"
     inkscape:snap-global="false"
     inkscape:zoom="2.6903357"
     inkscape:cx="275.98786"
     inkscape:cy="149.60958"
     inkscape:window-width="1846"
     inkscape:window-height="1136"
     inkscape:window-x="0"
     inkscape:window-y="0"
     inkscape:window-maximized="1"
     inkscape:current-layer="g8"
     units="in"
     inkscape:document-units="in" /><g
     id="g8"
     inkscape:groupmode="layer"
     inkscape:label="Figure_1_meltR.A_usage_and_results"
     transform="matrix(1.3333333,0,0,-1.3333333,0,1511.8107)"><rect
       style="fill:#698cdb;fill-opacity:1;stroke:#000000;stroke-width:1.15516;stroke-linejoin:round;stroke-miterlimit:4;stroke-dasharray:none;stroke-opacity:1"
       id="rect3507"
       width="227.37541"
       height="52.998165"
       x="3.9947991"
       y="-1115.8263"
       transform="scale(1,-1)"
       inkscape:transform-center-x="-2.8039178"
       inkscape:transform-center-y="-1.5944451"
       ry="8.3383074" /><rect
       style="fill:#698cdb;fill-opacity:1;stroke:#000000;stroke-width:1.26693;stroke-linejoin:round;stroke-opacity:1"
       id="rect3507-9"
       width="226.88727"
       height="124.81144"
       x="5.4841228"
       y="-1043.8942"
       transform="scale(1,-1)"
       inkscape:transform-center-x="-2.797887"
       inkscape:transform-center-y="-3.754958"
       ry="9.5249882" /><text
       transform="matrix(0.67778302,0,0,-0.67778302,-0.13750427,634.82374)"
       style="font-variant:normal;font-weight:normal;font-size:9.9626px;font-family:LMMono10;-inkscape-font-specification:LMMono10-Regular;writing-mode:lr-tb;fill:#000000;fill-opacity:1;fill-rule:nonzero;stroke:none"
       id="text170"
       x="11.018759"
       y="-718.30414"
       clip-path="url(#clipPath1754)"><tspan
         x="11.018759 16.249123"
         y="-718.30414"
         sodipodi:role="line"
         id="tspan60">df</tspan><tspan
         x="26.709854"
         y="-718.30414"
         id="tspan62">=</tspan><tspan
         x="37.170586 42.400955 47.631321 52.861675 58.092037 63.322407 68.552765 73.783142 79.013504 84.243866 89.474236 94.704597 99.934982"
         y="-718.30414"
         sodipodi:role="line"
         id="tspan64">df.absorbance</tspan><tspan
         x="110.3957 115.62606 120.85642"
         y="-718.30414"
         sodipodi:role="line"
         id="tspan66">%&gt;%</tspan><tspan
         x="131.31717 136.54753 141.77789 147.00826 152.23862 157.46899"
         y="-718.30414"
         sodipodi:role="line"
         id="tspan68">filter</tspan><tspan
         x="162.69936 167.92972 173.16008 178.39044 183.62082 188.85118 194.08154 199.31189 204.54227 209.77264 215.00298"
         y="-718.30414"
         sodipodi:role="line"
         id="tspan70">(Experiment</tspan><tspan
         x="225.4637 230.69408"
         y="-718.30414"
         sodipodi:role="line"
         id="tspan72">==</tspan><tspan
         x="241.15482 246.38519 251.61554 256.84592 262.07629 267.30664 277.7674 282.99774 288.22812 293.45847"
         y="-718.30414"
         sodipodi:role="line"
         id="tspan74">&quot;CROWDDP5&quot;</tspan><tspan
         x="298.68884"
         y="-718.30414"
         id="tspan76">)</tspan><tspan
         x="11.018759 16.249123 21.479492 26.709854 31.940216 37.170586 42.400955"
         y="-694.39313"
         sodipodi:role="line"
         id="tspan78">meltR.A</tspan><tspan
         x="47.631321 52.861675 58.092037 63.322407"
         y="-694.39313"
         sodipodi:role="line"
         id="tspan80">(df,</tspan><tspan
         x="52.861752 58.092121 63.322475 68.552841 73.783218 79.013588 84.24395 94.704689"
         y="-682.43811"
         sodipodi:role="line"
         id="tspan82">NucAcid=</tspan><tspan
         x="105.16541"
         y="-682.43811"
         id="tspan84">c</tspan><tspan
         x="110.39577"
         y="-682.43811"
         id="tspan86">(</tspan><tspan
         x="115.62615 120.85651 126.08688 131.31725 136.54761"
         y="-682.43811"
         sodipodi:role="line"
         id="tspan88">&quot;RNA&quot;</tspan><tspan
         x="141.77797"
         y="-682.43811"
         id="tspan90">,</tspan><tspan
         x="152.23871 157.46907 162.69943 167.92979 173.16016 178.39053 183.6209 188.85126"
         y="-682.43811"
         sodipodi:role="line"
         id="tspan92">&quot;ACCGGU&quot;</tspan><tspan
         x="194.0816 199.31198"
         y="-682.43811"
         sodipodi:role="line"
         id="tspan94">),</tspan><tspan
         x="52.861752 58.092121 63.322475 68.552841 73.783218 79.013588 89.474327"
         y="-670.48309"
         sodipodi:role="line"
         id="tspan96">Mmodel=</tspan><tspan
         x="99.935051 105.16541 110.39577 115.62615 120.85651 126.08688 131.31725 136.54761 141.77797 147.00833 152.23871 157.46907 162.69943 167.92979 173.16016 178.39053 183.6209 188.85126 194.0816"
         y="-670.48309"
         sodipodi:role="line"
         id="tspan98">&quot;Homoduplex.2State&quot;</tspan><tspan
         x="199.31198"
         y="-670.48309"
         id="tspan100">,</tspan><tspan
         x="52.861752 58.092121 63.322475 68.552841 73.783218 84.24395"
         y="-658.52814"
         sodipodi:role="line"
         id="tspan102">concT=</tspan><tspan
         x="94.704689 99.935051"
         y="-658.52814"
         sodipodi:role="line"
         id="tspan104">80</tspan><tspan
         x="105.16541"
         y="-658.52814"
         id="tspan106">,</tspan><tspan
         x="52.861752 58.092121 63.322475 68.552841 73.783218 84.24395"
         y="-646.57312"
         sodipodi:role="line"
         id="tspan108">fitTs=</tspan><tspan
         x="94.704689"
         y="-646.57312"
         id="tspan110">c</tspan><tspan
         x="99.935051"
         y="-646.57312"
         id="tspan112">(</tspan><tspan
         x="105.16541 110.39577"
         y="-646.57312"
         sodipodi:role="line"
         id="tspan114">20</tspan><tspan
         x="115.62615"
         y="-646.57312"
         id="tspan116">,</tspan><tspan
         x="126.08688 131.31725"
         y="-646.57312"
         sodipodi:role="line"
         id="tspan118">65</tspan><tspan
         x="136.54761 141.77797"
         y="-646.57312"
         sodipodi:role="line"
         id="tspan120">))</tspan><tspan
         x="11.018759 16.249123 26.709854 31.940216 37.170586 47.631321 52.861675 58.092037 63.322407 68.552765 73.783142 79.013504 84.243866 89.474236 94.704597 99.934982 110.3957 115.62606 120.85642 126.0868 131.31717 136.54753 141.77789"
         y="-624.26611"
         sodipodi:role="line"
         id="tspan122">##[1]&quot;Individualcurves&quot;</tspan><tspan
         x="11.018759 16.249123 37.170586 42.400955 47.631321 52.861675 58.092037 63.322407 126.0868 131.31717 167.92972 209.77264 241.15482 267.30664 272.53702"
         y="-612.3111"
         sodipodi:role="line"
         id="tspan124">##SampleCtHSGTm</tspan><tspan
         x="11.018759 16.249123 26.709854 58.092037 63.322407 73.783142 79.013504 84.243866 89.474236 94.704597 99.934982 105.16534 110.3957 115.62606 120.85642 126.0868 131.31717 141.77789 147.00826 152.23862 157.46899 162.69936 167.92972 178.39044 183.62082 188.85118 194.08154 199.31189 204.54227 209.77264 220.23335 225.4637 230.69408 235.92445 241.15482 251.61554 256.84592 262.07629 267.30664 272.53702"
         y="-600.35614"
         sodipodi:role="line"
         id="tspan126">##1145.259360e-04-55.61-0.1570-6.9250.19</tspan><tspan
         x="11.018759 16.249123 26.709854 58.092037 63.322407 73.783142 79.013504 84.243866 89.474236 94.704597 99.934982 105.16534 110.3957 115.62606 120.85642 126.0868 131.31717 141.77789 147.00826 152.23862 157.46899 162.69936 167.92972 178.39044 183.62082 188.85118 194.08154 199.31189 204.54227 209.77264 220.23335 225.4637 230.69408 235.92445 241.15482 251.61554 256.84592 262.07629 267.30664 272.53702"
         y="-588.40112"
         sodipodi:role="line"
         id="tspan128">##2157.161730e-05-55.68-0.1574-6.8742.62</tspan><tspan
         x="11.018759 16.249123 26.709854 58.092037 63.322407 73.783142 79.013504 84.243866 89.474236 94.704597 99.934982 105.16534 110.3957 115.62606 120.85642 126.0868 131.31717 141.77789 147.00826 152.23862 157.46899 162.69936 167.92972 178.39044 183.62082 188.85118 194.08154 199.31189 204.54227 209.77264 220.23335 225.4637 230.69408 235.92445 241.15482 251.61554 256.84592 262.07629 267.30664 272.53702"
         y="-576.44611"
         sodipodi:role="line"
         id="tspan130">##3161.518661e-05-59.44-0.1685-7.1838.77</tspan><tspan
         x="11.018759 16.249123 26.709854 58.092037 63.322407 73.783142 79.013504 84.243866 89.474236 94.704597 99.934982 105.16534 110.3957 115.62606 120.85642 126.0868 131.31717 141.77789 147.00826 152.23862 157.46899 162.69936 167.92972 178.39044 183.62082 188.85118 194.08154 199.31189 204.54227 209.77264 220.23335 225.4637 230.69408 235.92445 241.15482 251.61554 256.84592 262.07629 267.30664 272.53702"
         y="-564.49011"
         sodipodi:role="line"
         id="tspan132">##4183.077518e-04-44.85-0.1238-6.4547.45</tspan><tspan
         x="11.018759 16.249123 26.709854 58.092037 63.322407 73.783142 79.013504 84.243866 89.474236 94.704597 99.934982 105.16534 110.3957 115.62606 120.85642 126.0868 131.31717 141.77789 147.00826 152.23862 157.46899 162.69936 167.92972 178.39044 183.62082 188.85118 194.08154 199.31189 204.54227 209.77264 220.23335 225.4637 230.69408 235.92445 241.15482 251.61554 256.84592 262.07629 267.30664 272.53702"
         y="-552.53503"
         sodipodi:role="line"
         id="tspan134">##5194.351600e-05-53.15-0.1492-6.8640.95</tspan><tspan
         x="11.018759 16.249123 26.709854 58.092037 63.322407 73.783142 79.013504 84.243866 89.474236 94.704597 99.934982 105.16534 110.3957 115.62606 120.85642 126.0868 131.31717 141.77789 147.00826 152.23862 157.46899 162.69936 167.92972 178.39044 183.62082 188.85118 194.08154 199.31189 204.54227 209.77264 220.23335 225.4637 230.69408 235.92445 241.15482 251.61554 256.84592 262.07629 267.30664 272.53702"
         y="-540.58008"
         sodipodi:role="line"
         id="tspan136">##6209.795616e-06-69.96-0.2029-7.0236.61</tspan><tspan
         x="11.018759 16.249123 26.709854 58.092037 63.322407 73.783142 79.013504 84.243866 89.474236 94.704597 99.934982 105.16534 110.3957 115.62606 120.85642 126.0868 131.31717 141.77789 147.00826 152.23862 157.46899 162.69936 167.92972 178.39044 183.62082 188.85118 194.08154 199.31189 204.54227 209.77264 220.23335 225.4637 230.69408 235.92445 241.15482 251.61554 256.84592 262.07629 267.30664 272.53702"
         y="-528.62506"
         sodipodi:role="line"
         id="tspan138">##7221.509123e-04-58.39-0.1664-6.7944.41</tspan><tspan
         x="11.018759 16.249123 26.709854 58.092037 63.322407 73.783142 79.013504 84.243866 89.474236 94.704597 99.934982 105.16534 110.3957 115.62606 120.85642 126.0868 131.31717 141.77789 147.00826 152.23862 157.46899 162.69936 167.92972 178.39044 183.62082 188.85118 194.08154 199.31189 204.54227 209.77264 220.23335 225.4637 230.69408 235.92445 241.15482 251.61554 256.84592 262.07629 267.30664 272.53702"
         y="-516.67004"
         sodipodi:role="line"
         id="tspan140">##8232.289100e-05-51.80-0.1446-6.9539.23</tspan><tspan
         x="11.018759 16.249123 26.709854 58.092037 63.322407 73.783142 79.013504 84.243866 89.474236 94.704597 99.934982 105.16534 110.3957 115.62606 120.85642 126.0868 131.31717 141.77789 147.00826 152.23862 157.46899 162.69936 167.92972 178.39044 183.62082 188.85118 194.08154 199.31189 204.54227 209.77264 220.23335 225.4637 230.69408 235.92445 241.15482 251.61554 256.84592 262.07629 267.30664 272.53702"
         y="-504.71506"
         sodipodi:role="line"
         id="tspan142">##9246.984597e-06-57.50-0.1639-6.6733.54</tspan><tspan
         x="11.018759 16.249123 26.709854 31.940216 37.170586 47.631321 52.861675 58.092037 63.322407 68.552765 73.783142 79.013504 84.243866 89.474236"
         y="-492.75906"
         sodipodi:role="line"
         id="tspan144">##[1]&quot;Summary&quot;</tspan><tspan
         x="11.018759 16.249123 99.934982 105.16534 110.3957 115.62606 120.85642 126.0868 162.69936 173.16008 178.39044 183.62082 188.85118 230.69408 246.38519 251.61554 256.84592 262.07629 293.45847 303.91922 309.14957 314.37994 319.61029 330.07104 335.30139 340.53177 345.76212 350.99249 356.22287 361.45322 366.68359 371.91394 377.14432 382.37469"
         y="-480.80411"
         sodipodi:role="line"
         id="tspan146">##MethodHSE.HSSE.SGSE.GTm_at_0.1mM</tspan><tspan
         x="11.018759 16.249123 26.709854 42.400955 52.861675 58.092037 63.322407 68.552765 73.783142 79.013504 84.243866 89.474236 94.704597 99.934982 110.3957 115.62606 120.85642 126.0868 136.54753 141.77789 147.00826 152.23862 157.46899 162.69936 173.16008 178.39044 183.62082 188.85118 199.31189 204.54227 209.77264 215.00298 220.23335 225.4637 230.69408 241.15482 246.38519 251.61554 256.84592 262.07629 272.53702 277.7674 282.99774 288.22812 293.45847 303.91922 309.14957 314.37994 319.61029 361.45322 366.68359 371.91394 377.14432 382.37469"
         y="-468.84909"
         sodipodi:role="line"
         id="tspan148">##11individualfits-56.266.75-159.3021.34-6.860.2143.62</tspan><tspan
         x="11.018759 16.249123 26.709854 37.170586 47.631321 52.861675 63.322407 68.552765 73.783142 79.013504 84.243866 89.474236 99.934982 105.16534 110.3957 115.62606 120.85642 126.0868 136.54753 141.77789 147.00826 152.23862 157.46899 162.69936 173.16008 178.39044 183.62082 188.85118 199.31189 204.54227 209.77264 215.00298 220.23335 225.4637 230.69408 241.15482 246.38519 251.61554 256.84592 262.07629 272.53702 277.7674 282.99774 288.22812 293.45847 303.91922 309.14957 314.37994 319.61029 361.45322 366.68359 371.91394 377.14432 382.37469"
         y="-456.89407"
         sodipodi:role="line"
         id="tspan150">##22Tmversusln[Ct]-58.243.50-165.4211.12-6.930.0743.85</tspan><tspan
         x="11.018759 16.249123 26.709854 68.552765 79.013504 84.243866 89.474236 94.704597 99.934982 105.16534 115.62606 120.85642 126.0868 136.54753 141.77789 147.00826 152.23862 157.46899 162.69936 173.16008 178.39044 183.62082 188.85118 199.31189 204.54227 209.77264 215.00298 220.23335 225.4637 230.69408 246.38519 251.61554 256.84592 262.07629 272.53702 277.7674 282.99774 288.22812 293.45847 303.91922 309.14957 314.37994 319.61029 361.45322 366.68359 371.91394 377.14432 382.37469"
         y="-444.93912"
         sodipodi:role="line"
         id="tspan152">##33Globalfit-53.580.48-150.781.50-6.820.0243.74</tspan><tspan
         x="11.018759 16.249123 37.170586 42.400955 47.631321 52.861675 58.092037 63.322407 68.552765 73.783142 79.013504 84.243866 89.474236 94.704597 99.934982 105.16534"
         y="-432.9841"
         sodipodi:role="line"
         id="tspan154">##SE.Tm_at_0.1mM</tspan><tspan
         x="11.018759 16.249123 26.709854 89.474236 94.704597 99.934982 105.16534"
         y="-421.02811"
         sodipodi:role="line"
         id="tspan156">##17.85</tspan><tspan
         x="11.018759 16.249123 26.709854 89.474236 94.704597 99.934982 105.16534"
         y="-409.07309"
         sodipodi:role="line"
         id="tspan158">##23.95</tspan><tspan
         x="11.018759 16.249123 26.709854 89.474236 94.704597 99.934982 105.16534"
         y="-397.11807"
         sodipodi:role="line"
         id="tspan160">##30.59</tspan><tspan
         x="11.018759 16.249123 26.709854 31.940216 37.170586 47.631321 52.861675 58.092037 63.322407 68.552765 73.783142 79.013504 84.243866 89.474236 94.704597 99.934982 110.3957 115.62606 120.85642 126.0868 131.31717 141.77789 147.00826 152.23862 157.46899 162.69936 167.92972 173.16008 183.62082 188.85118 194.08154 199.31189 204.54227 209.77264 215.00298 220.23335"
         y="-385.16312"
         sodipodi:role="line"
         id="tspan162">##[1]&quot;fractionalerrorbetweenmethods&quot;</tspan><tspan
         x="11.018759 16.249123 84.243866 141.77789 199.31189"
         y="-373.20807"
         sodipodi:role="line"
         id="tspan164">##HSG</tspan><tspan
         x="11.018759 16.249123 26.709854 37.170586 42.400955 47.631321 52.861675 58.092037 63.322407 68.552765 73.783142 79.013504 84.243866 94.704597 99.934982 105.16534 110.3957 115.62606 120.85642 126.0868 131.31717 136.54753 141.77789 152.23862 157.46899 162.69936 167.92972 173.16008 178.39044 183.62082 188.85118 194.08154 199.31189"
         y="-361.25208"
         sodipodi:role="line"
         id="tspan166">##10.083174680.092365930.01601164</tspan><tspan
         x="11.018759 16.249123 26.709854 31.940216 37.170586 47.631321 52.861675 58.092037 68.552765 73.783142 79.013504 89.474236 94.704597 105.16534 110.3957 115.62606 126.0868 131.31717 141.77789 147.00826 152.23862 157.46899 162.69936 167.92972 173.16008 178.39044 188.85118 194.08154 199.31189 209.77264 215.00298 225.4637 230.69408 241.15482 246.38519 256.84592 262.07629 267.30664 272.53702 277.7674 282.99774 288.22812 293.45847 298.68884 303.91922 314.37994 319.61029 324.84067 335.30139 340.53177 345.76212 356.22287 361.45322 371.91394 377.14432 382.37469 392.83542 398.06577 403.29614 408.52652 413.75687 418.98724 424.21759 429.44797"
         y="-349.29709"
         sodipodi:role="line"
         id="tspan168">##[1]&quot;dHanddGareinkcal/molanddSisincal/mol/K.TmsareindegCelsius&quot;</tspan></text><text
       transform="matrix(1,0,0,-1,303.509,383.97)"
       style="font-variant:normal;font-weight:normal;font-size:9.9626px;font-family:LMRoman10;-inkscape-font-specification:LMRoman10-Regular;writing-mode:lr-tb;fill:#000000;fill-opacity:1;fill-rule:nonzero;stroke:none"
       id="text174"
       clip-path="url(#clipPath1750)"><tspan
         x="0"
         y="0"
         id="tspan172">2</tspan></text><g
       id="g7340"
       transform="matrix(0.50200495,0,0,0.50200495,-24.666363,715.40021)"
       clip-path="url(#clipPath7817)"><text
         transform="matrix(1,0,0,-1,46.575131,58.12254)"
         style="font-variant:normal;font-weight:normal;font-size:8.64462px;font-family:LMMono10;-inkscape-font-specification:LMMono10-Regular;writing-mode:lr-tb;fill:#000000;fill-opacity:1;fill-rule:nonzero;stroke:none;stroke-width:0.867707"
         id="text170-9"
         x="15.16904"
         y="-653.47839"
         clip-path="url(#clipPath2249)"><tspan
           x="15.16904 19.707445"
           y="-653.47839"
           sodipodi:role="line"
           id="tspan60-3"
           style="stroke-width:0.867707">df</tspan><tspan
           x="28.784288"
           y="-653.47839"
           id="tspan62-3"
           style="stroke-width:0.867707">=</tspan><tspan
           x="37.861153 42.399563 46.937996 51.476402 56.014835 60.553246 65.09166 69.630119 74.168526 78.706932 83.245392 87.783806 92.322266"
           y="-653.47839"
           sodipodi:role="line"
           id="tspan64-8"
           style="stroke-width:0.867707">df.absorbance</tspan><tspan
           x="101.39907 105.93748 110.47594"
           y="-653.47839"
           sodipodi:role="line"
           id="tspan66-0"
           style="stroke-width:0.867707">%&gt;%</tspan><tspan
           x="119.55276 124.09122 128.62962 133.16803 137.70644 142.24489"
           y="-653.47839"
           sodipodi:role="line"
           id="tspan68-5"
           style="stroke-width:0.867707">filter</tspan><tspan
           x="146.78329 151.3217 155.86017 160.39857 164.93698 169.47545 174.01385 178.55226 183.09067 187.62912 192.16753"
           y="-653.47839"
           sodipodi:role="line"
           id="tspan70-6"
           style="stroke-width:0.867707">(Experiment</tspan><tspan
           x="201.24435 205.78281"
           y="-653.47839"
           sodipodi:role="line"
           id="tspan72-6"
           style="stroke-width:0.867707">==</tspan><tspan
           x="214.85962 219.39809 223.93649 228.47491 233.01337 237.55177 246.62865 251.16705 255.70546 260.24387"
           y="-653.47839"
           sodipodi:role="line"
           id="tspan74-4"
           style="stroke-width:0.867707">&quot;CROWDDP5&quot;</tspan><tspan
           x="264.78232"
           y="-653.47839"
           id="tspan76-0"
           style="stroke-width:0.867707">)</tspan><tspan
           x="15.16904 19.707445 24.24588 28.784288 33.32272 37.861153 42.399563"
           y="-632.73065"
           sodipodi:role="line"
           id="tspan78-0"
           style="stroke-width:0.867707">meltR.A</tspan><tspan
           x="46.937996 51.476402 56.014835 60.553246"
           y="-632.73065"
           sodipodi:role="line"
           id="tspan80-4"
           style="stroke-width:0.867707">(df,</tspan><tspan
           x="51.476482 56.014915 60.553299 65.091713 69.630173 74.168579 78.707039 87.783859"
           y="-622.35724"
           sodipodi:role="line"
           id="tspan82-6"
           style="stroke-width:0.867707">NucAcid=</tspan><tspan
           x="96.860725"
           y="-622.35724"
           id="tspan84-2"
           style="stroke-width:0.867707">c</tspan><tspan
           x="101.39914"
           y="-622.35724"
           id="tspan86-6"
           style="stroke-width:0.867707">(</tspan><tspan
           x="105.93759 110.476 115.0144 119.55286 124.09128"
           y="-622.35724"
           sodipodi:role="line"
           id="tspan88-7"
           style="stroke-width:0.867707">&quot;RNA&quot;</tspan><tspan
           x="128.62967"
           y="-622.35724"
           id="tspan90-5"
           style="stroke-width:0.867707">,</tspan><tspan
           x="137.70654 142.24495 146.78336 151.32181 155.86021 160.39862 164.93709 169.47549"
           y="-622.35724"
           sodipodi:role="line"
           id="tspan92-6"
           style="stroke-width:0.867707">&quot;ACCGGU&quot;</tspan><tspan
           x="174.0139 178.55231"
           y="-622.35724"
           sodipodi:role="line"
           id="tspan94-9"
           style="stroke-width:0.867707">),</tspan><tspan
           x="51.476482 56.014915 60.553299 65.091713 69.630173 74.168579 83.245445"
           y="-611.98376"
           sodipodi:role="line"
           id="tspan96-8"
           style="stroke-width:0.867707">Mmodel=</tspan><tspan
           x="92.322319 96.860725 101.39914 105.93759 110.476 115.0144 119.55286 124.09128 128.62967 133.16808 137.70654 142.24495 146.78336 151.32181 155.86021 160.39862 164.93709 169.47549 174.0139"
           y="-611.98376"
           sodipodi:role="line"
           id="tspan98-7"
           style="stroke-width:0.867707">&quot;Homoduplex.2State&quot;</tspan><tspan
           x="178.55231"
           y="-611.98376"
           id="tspan100-2"
           style="stroke-width:0.867707">,</tspan><tspan
           x="51.476482 56.014915 60.553299 65.091713 69.630173 78.707039"
           y="-601.61035"
           sodipodi:role="line"
           id="tspan102-8"
           style="stroke-width:0.867707">concT=</tspan><tspan
           x="87.783859 92.322319"
           y="-601.61035"
           sodipodi:role="line"
           id="tspan104-2"
           style="stroke-width:0.867707">80</tspan><tspan
           x="96.860725"
           y="-601.61035"
           id="tspan106-9"
           style="stroke-width:0.867707">,</tspan><tspan
           x="51.476482 56.014915 60.553299 65.091713 69.630173 78.707039"
           y="-591.23694"
           sodipodi:role="line"
           id="tspan108-9"
           style="stroke-width:0.867707">fitTs=</tspan><tspan
           x="87.783859"
           y="-591.23694"
           id="tspan110-6"
           style="stroke-width:0.867707">c</tspan><tspan
           x="92.322319"
           y="-591.23694"
           id="tspan112-0"
           style="stroke-width:0.867707">(</tspan><tspan
           x="96.860725 101.39914"
           y="-591.23694"
           sodipodi:role="line"
           id="tspan114-2"
           style="stroke-width:0.867707">20</tspan><tspan
           x="105.93759"
           y="-591.23694"
           id="tspan116-7"
           style="stroke-width:0.867707">,</tspan><tspan
           x="115.0144 119.55286"
           y="-591.23694"
           sodipodi:role="line"
           id="tspan118-6"
           style="stroke-width:0.867707">65</tspan><tspan
           x="124.09128 128.62967"
           y="-591.23694"
           sodipodi:role="line"
           id="tspan120-1"
           style="stroke-width:0.867707">))</tspan><tspan
           x="15.16904 19.707445 28.784288 33.32272 37.861153 46.937996 51.476402 56.014835 60.553246 65.09166 69.630119 74.168526 78.706932 83.245392 87.783806 92.322266 101.39907 105.93748 110.47594 115.01435 119.55276 124.09122 128.62962"
           y="-571.88098"
           sodipodi:role="line"
           id="tspan122-3"
           style="stroke-width:0.867707">##[1]&quot;Individualcurves&quot;</tspan><tspan
           x="15.16904 19.707445 37.861153 42.399563 46.937996 51.476402 56.014835 60.553246 115.01435 119.55276 151.3217 187.62912 214.85962 237.55177 242.09018"
           y="-561.50751"
           sodipodi:role="line"
           id="tspan124-2"
           style="stroke-width:0.867707">##SampleCtHSGTm</tspan><tspan
           x="15.16904 19.707445 28.784288 56.014835 60.553246 69.630119 74.168526 78.706932 83.245392 87.783806 92.322266 96.860672 101.39907 105.93748 110.47594 115.01435 119.55276 128.62962 133.16803 137.70644 142.24489 146.78329 151.3217 160.39857 164.93698 169.47545 174.01385 178.55226 183.09067 187.62912 196.70593 201.24435 205.78281 210.32121 214.85962 223.93649 228.47491 233.01337 237.55177 242.09018"
           y="-551.13416"
           sodipodi:role="line"
           id="tspan126-1"
           style="stroke-width:0.867707">##1145.259360e-04-55.61-0.1570-6.9250.19</tspan><tspan
           x="15.16904 19.707445 28.784288 56.014835 60.553246 69.630119 74.168526 78.706932 83.245392 87.783806 92.322266 96.860672 101.39907 105.93748 110.47594 115.01435 119.55276 128.62962 133.16803 137.70644 142.24489 146.78329 151.3217 160.39857 164.93698 169.47545 174.01385 178.55226 183.09067 187.62912 196.70593 201.24435 205.78281 210.32121 214.85962 223.93649 228.47491 233.01337 237.55177 242.09018"
           y="-540.76068"
           sodipodi:role="line"
           id="tspan128-5"
           style="stroke-width:0.867707">##2157.161730e-05-55.68-0.1574-6.8742.62</tspan><tspan
           x="15.16904 19.707445 28.784288 56.014835 60.553246 69.630119 74.168526 78.706932 83.245392 87.783806 92.322266 96.860672 101.39907 105.93748 110.47594 115.01435 119.55276 128.62962 133.16803 137.70644 142.24489 146.78329 151.3217 160.39857 164.93698 169.47545 174.01385 178.55226 183.09067 187.62912 196.70593 201.24435 205.78281 210.32121 214.85962 223.93649 228.47491 233.01337 237.55177 242.09018"
           y="-530.38721"
           sodipodi:role="line"
           id="tspan130-9"
           style="stroke-width:0.867707">##3161.518661e-05-59.44-0.1685-7.1838.77</tspan><tspan
           x="15.16904 19.707445 28.784288 56.014835 60.553246 69.630119 74.168526 78.706932 83.245392 87.783806 92.322266 96.860672 101.39907 105.93748 110.47594 115.01435 119.55276 128.62962 133.16803 137.70644 142.24489 146.78329 151.3217 160.39857 164.93698 169.47545 174.01385 178.55226 183.09067 187.62912 196.70593 201.24435 205.78281 210.32121 214.85962 223.93649 228.47491 233.01337 237.55177 242.09018"
           y="-520.01294"
           sodipodi:role="line"
           id="tspan132-9"
           style="stroke-width:0.867707">##4183.077518e-04-44.85-0.1238-6.4547.45</tspan><tspan
           x="15.16904 19.707445 28.784288 56.014835 60.553246 69.630119 74.168526 78.706932 83.245392 87.783806 92.322266 96.860672 101.39907 105.93748 110.47594 115.01435 119.55276 128.62962 133.16803 137.70644 142.24489 146.78329 151.3217 160.39857 164.93698 169.47545 174.01385 178.55226 183.09067 187.62912 196.70593 201.24435 205.78281 210.32121 214.85962 223.93649 228.47491 233.01337 237.55177 242.09018"
           y="-509.63943"
           sodipodi:role="line"
           id="tspan134-1"
           style="stroke-width:0.867707">##5194.351600e-05-53.15-0.1492-6.8640.95</tspan><tspan
           x="15.16904 19.707445 28.784288 56.014835 60.553246 69.630119 74.168526 78.706932 83.245392 87.783806 92.322266 96.860672 101.39907 105.93748 110.47594 115.01435 119.55276 128.62962 133.16803 137.70644 142.24489 146.78329 151.3217 160.39857 164.93698 169.47545 174.01385 178.55226 183.09067 187.62912 196.70593 201.24435 205.78281 210.32121 214.85962 223.93649 228.47491 233.01337 237.55177 242.09018"
           y="-499.26608"
           sodipodi:role="line"
           id="tspan136-4"
           style="stroke-width:0.867707">##6209.795616e-06-69.96-0.2029-7.0236.61</tspan><tspan
           x="15.16904 19.707445 28.784288 56.014835 60.553246 69.630119 74.168526 78.706932 83.245392 87.783806 92.322266 96.860672 101.39907 105.93748 110.47594 115.01435 119.55276 128.62962 133.16803 137.70644 142.24489 146.78329 151.3217 160.39857 164.93698 169.47545 174.01385 178.55226 183.09067 187.62912 196.70593 201.24435 205.78281 210.32121 214.85962 223.93649 228.47491 233.01337 237.55177 242.09018"
           y="-488.89261"
           sodipodi:role="line"
           id="tspan138-9"
           style="stroke-width:0.867707">##7221.509123e-04-58.39-0.1664-6.7944.41</tspan><tspan
           x="15.16904 19.707445 28.784288 56.014835 60.553246 69.630119 74.168526 78.706932 83.245392 87.783806 92.322266 96.860672 101.39907 105.93748 110.47594 115.01435 119.55276 128.62962 133.16803 137.70644 142.24489 146.78329 151.3217 160.39857 164.93698 169.47545 174.01385 178.55226 183.09067 187.62912 196.70593 201.24435 205.78281 210.32121 214.85962 223.93649 228.47491 233.01337 237.55177 242.09018"
           y="-478.51917"
           sodipodi:role="line"
           id="tspan140-1"
           style="stroke-width:0.867707">##8232.289100e-05-51.80-0.1446-6.9539.23</tspan><tspan
           x="15.16904 19.707445 28.784288 56.014835 60.553246 69.630119 74.168526 78.706932 83.245392 87.783806 92.322266 96.860672 101.39907 105.93748 110.47594 115.01435 119.55276 128.62962 133.16803 137.70644 142.24489 146.78329 151.3217 160.39857 164.93698 169.47545 174.01385 178.55226 183.09067 187.62912 196.70593 201.24435 205.78281 210.32121 214.85962 223.93649 228.47491 233.01337 237.55177 242.09018"
           y="-468.14572"
           sodipodi:role="line"
           id="tspan142-0"
           style="stroke-width:0.867707">##9246.984597e-06-57.50-0.1639-6.6733.54</tspan><tspan
           x="15.16904 19.707445 28.784288 33.32272 37.861153 46.937996 51.476402 56.014835 60.553246 65.09166 69.630119 74.168526 78.706932 83.245392"
           y="-457.77139"
           sodipodi:role="line"
           id="tspan144-7"
           style="stroke-width:0.867707">##[1]&quot;Summary&quot;</tspan><tspan
           x="15.16904 19.707445 92.322266 96.860672 101.39907 105.93748 110.47594 115.01435 146.78329 155.86017 160.39857 164.93698 169.47545 205.78281 219.39809 223.93649 228.47491 233.01337 260.24387 269.32074 273.85913 278.39761 282.936 292.01288 296.5513 301.08969 305.62811 310.16656 314.70499 319.24338 323.78183 328.32025 332.85864 337.39713"
           y="-447.39798"
           sodipodi:role="line"
           id="tspan146-5"
           style="stroke-width:0.867707">##MethodHSE.HSSE.SGSE.GTm_at_0.1mM</tspan><tspan
           x="15.16904 19.707445 28.784288 42.399563 51.476402 56.014835 60.553246 65.09166 69.630119 74.168526 78.706932 83.245392 87.783806 92.322266 101.39907 105.93748 110.47594 115.01435 124.09122 128.62962 133.16803 137.70644 142.24489 146.78329 155.86017 160.39857 164.93698 169.47545 178.55226 183.09067 187.62912 192.16753 196.70593 201.24435 205.78281 214.85962 219.39809 223.93649 228.47491 233.01337 242.09018 246.62865 251.16705 255.70546 260.24387 269.32074 273.85913 278.39761 282.936 319.24338 323.78183 328.32025 332.85864 337.39713"
           y="-437.02454"
           sodipodi:role="line"
           id="tspan148-8"
           style="stroke-width:0.867707">##11individualfits-56.266.75-159.3021.34-6.860.2143.62</tspan><tspan
           x="15.16904 19.707445 28.784288 37.861153 46.937996 51.476402 60.553246 65.09166 69.630119 74.168526 78.706932 83.245392 92.322266 96.860672 101.39907 105.93748 110.47594 115.01435 124.09122 128.62962 133.16803 137.70644 142.24489 146.78329 155.86017 160.39857 164.93698 169.47545 178.55226 183.09067 187.62912 192.16753 196.70593 201.24435 205.78281 214.85962 219.39809 223.93649 228.47491 233.01337 242.09018 246.62865 251.16705 255.70546 260.24387 269.32074 273.85913 278.39761 282.936 319.24338 323.78183 328.32025 332.85864 337.39713"
           y="-426.65109"
           sodipodi:role="line"
           id="tspan150-7"
           style="stroke-width:0.867707">##22Tmversusln[Ct]-58.243.50-165.4211.12-6.930.0743.85</tspan><tspan
           x="15.16904 19.707445 28.784288 65.09166 74.168526 78.706932 83.245392 87.783806 92.322266 96.860672 105.93748 110.47594 115.01435 124.09122 128.62962 133.16803 137.70644 142.24489 146.78329 155.86017 160.39857 164.93698 169.47545 178.55226 183.09067 187.62912 192.16753 196.70593 201.24435 205.78281 219.39809 223.93649 228.47491 233.01337 242.09018 246.62865 251.16705 255.70546 260.24387 269.32074 273.85913 278.39761 282.936 319.24338 323.78183 328.32025 332.85864 337.39713"
           y="-416.27768"
           sodipodi:role="line"
           id="tspan152-0"
           style="stroke-width:0.867707">##33Globalfit-53.580.48-150.781.50-6.820.0243.74</tspan><tspan
           x="15.16904 19.707445 37.861153 42.399563 46.937996 51.476402 56.014835 60.553246 65.09166 69.630119 74.168526 78.706932 83.245392 87.783806 92.322266 96.860672"
           y="-405.90424"
           sodipodi:role="line"
           id="tspan154-4"
           style="stroke-width:0.867707">##SE.Tm_at_0.1mM</tspan><tspan
           x="15.16904 19.707445 28.784288 83.245392 87.783806 92.322266 96.860672"
           y="-395.52994"
           sodipodi:role="line"
           id="tspan156-8"
           style="stroke-width:0.867707">##17.85</tspan><tspan
           x="15.16904 19.707445 28.784288 83.245392 87.783806 92.322266 96.860672"
           y="-385.15649"
           sodipodi:role="line"
           id="tspan158-0"
           style="stroke-width:0.867707">##23.95</tspan><tspan
           x="15.16904 19.707445 28.784288 83.245392 87.783806 92.322266 96.860672"
           y="-374.78305"
           sodipodi:role="line"
           id="tspan160-4"
           style="stroke-width:0.867707">##30.59</tspan><tspan
           x="15.16904 19.707445 28.784288 33.32272 37.861153 46.937996 51.476402 56.014835 60.553246 65.09166 69.630119 74.168526 78.706932 83.245392 87.783806 92.322266 101.39907 105.93748 110.47594 115.01435 119.55276 128.62962 133.16803 137.70644 142.24489 146.78329 151.3217 155.86017 164.93698 169.47545 174.01385 178.55226 183.09067 187.62912 192.16753 196.70593"
           y="-364.40964"
           sodipodi:role="line"
           id="tspan162-2"
           style="stroke-width:0.867707">##[1]&quot;fractionalerrorbetweenmethods&quot;</tspan><tspan
           x="15.16904 19.707445 78.706932 128.62962 178.55226"
           y="-354.03616"
           sodipodi:role="line"
           id="tspan164-9"
           style="stroke-width:0.867707">##HSG</tspan><tspan
           x="15.16904 19.707445 28.784288 37.861153 42.399563 46.937996 51.476402 56.014835 60.553246 65.09166 69.630119 74.168526 78.706932 87.783806 92.322266 96.860672 101.39907 105.93748 110.47594 115.01435 119.55276 124.09122 128.62962 137.70644 142.24489 146.78329 151.3217 155.86017 160.39857 164.93698 169.47545 174.01385 178.55226"
           y="-343.66187"
           sodipodi:role="line"
           id="tspan166-6"
           style="stroke-width:0.867707">##10.083174680.092365930.01601164</tspan><tspan
           x="15.16904 19.707445 28.784288 33.32272 37.861153 46.937996 51.476402 56.014835 65.09166 69.630119 74.168526 83.245392 87.783806 96.860672 101.39907 105.93748 115.01435 119.55276 128.62962 133.16803 137.70644 142.24489 146.78329 151.3217 155.86017 160.39857 169.47545 174.01385 178.55226 187.62912 192.16753 201.24435 205.78281 214.85962 219.39809 228.47491 233.01337 237.55177 242.09018 246.62865 251.16705 255.70546 260.24387 264.78232 269.32074 278.39761 282.936 287.47443 296.5513 301.08969 305.62811 314.70499 319.24338 328.32025 332.85864 337.39713 346.47394 351.01233 355.55081 360.0892 364.62762 369.16608 373.70447 378.24289"
           y="-333.28845"
           sodipodi:role="line"
           id="tspan168-1"
           style="stroke-width:0.867707">##[1]&quot;dHanddGareinkcal/molanddSisincal/mol/K.TmsareindegCelsius&quot;</tspan></text><text
         transform="matrix(1,0,0,-1,-353.89912,32.124613)"
         style="font-variant:normal;font-weight:normal;font-size:8.64462px;font-family:LMMono10;-inkscape-font-specification:LMMono10-Regular;writing-mode:lr-tb;fill:#000000;fill-opacity:1;fill-rule:nonzero;stroke:none;stroke-width:0.867707"
         id="text170-9-0"
         x="415.8262"
         y="-673.97821"
         clip-path="url(#clipPath2714)"><tspan
           x="415.8262 420.36462"
           y="-673.97821"
           sodipodi:role="line"
           id="tspan60-3-4"
           style="stroke-width:0.867707">df</tspan><tspan
           x="429.44147"
           y="-673.97821"
           id="tspan62-3-2"
           style="stroke-width:0.867707">=</tspan><tspan
           x="438.51831 443.05673 447.59515 452.13358 456.672 461.21042 465.74884 470.28729 474.82568 479.36411 483.90256 488.44098 492.97943"
           y="-673.97821"
           sodipodi:role="line"
           id="tspan64-8-2"
           style="stroke-width:0.867707">df.absorbance</tspan><tspan
           x="502.05624 506.59467 511.13312"
           y="-673.97821"
           sodipodi:role="line"
           id="tspan66-0-2"
           style="stroke-width:0.867707">%&gt;%</tspan><tspan
           x="520.20996 524.74841 529.2868 533.8252 538.36365 542.9021"
           y="-673.97821"
           sodipodi:role="line"
           id="tspan68-5-0"
           style="stroke-width:0.867707">filter</tspan><tspan
           x="547.44049 551.97888 556.51733 561.05579 565.59418 570.13263 574.67102 579.20947 583.74786 588.28632 592.82471"
           y="-673.97821"
           sodipodi:role="line"
           id="tspan70-6-5"
           style="stroke-width:0.867707">(Experiment</tspan><tspan
           x="601.90155 606.44"
           y="-673.97821"
           sodipodi:role="line"
           id="tspan72-6-5"
           style="stroke-width:0.867707">==</tspan><tspan
           x="615.51678 620.05524 624.59369 629.13208 633.67053 638.20892 647.28583 651.82422 656.36261 660.90106"
           y="-673.97821"
           sodipodi:role="line"
           id="tspan74-4-2"
           style="stroke-width:0.867707">&quot;CROWDDP5&quot;</tspan><tspan
           x="665.43951"
           y="-673.97821"
           id="tspan76-0-9"
           style="stroke-width:0.867707">)</tspan><tspan
           x="415.8262 420.36462 424.90305 429.44147 433.97989 438.51831 443.05673"
           y="-653.23047"
           sodipodi:role="line"
           id="tspan78-0-0"
           style="stroke-width:0.867707">meltR.A</tspan><tspan
           x="447.59515 452.13358 456.672 461.21042"
           y="-653.23047"
           sodipodi:role="line"
           id="tspan80-4-2"
           style="stroke-width:0.867707">(df,</tspan><tspan
           x="452.13367 456.67209 461.21048 465.74887 470.28735 474.82574 479.3642 488.44104"
           y="-642.85706"
           sodipodi:role="line"
           id="tspan82-6-8"
           style="stroke-width:0.867707">NucAcid=</tspan><tspan
           x="497.51788"
           y="-642.85706"
           id="tspan84-2-3"
           style="stroke-width:0.867707">c</tspan><tspan
           x="502.0563"
           y="-642.85706"
           id="tspan86-6-8"
           style="stroke-width:0.867707">(</tspan><tspan
           x="506.59476 511.13318 515.67157 520.21002 524.74847"
           y="-642.85706"
           sodipodi:role="line"
           id="tspan88-7-0"
           style="stroke-width:0.867707">&quot;RNA&quot;</tspan><tspan
           x="529.28687"
           y="-642.85706"
           id="tspan90-5-4"
           style="stroke-width:0.867707">,</tspan><tspan
           x="538.36371 542.90216 547.44055 551.979 556.5174 561.05579 565.5943 570.13269"
           y="-642.85706"
           sodipodi:role="line"
           id="tspan92-6-0"
           style="stroke-width:0.867707">&quot;ACCGGU&quot;</tspan><tspan
           x="574.67108 579.20947"
           y="-642.85706"
           sodipodi:role="line"
           id="tspan94-9-9"
           style="stroke-width:0.867707">),</tspan><tspan
           x="452.13367 456.67209 461.21048 465.74887 470.28735 474.82574 483.90262"
           y="-632.48358"
           sodipodi:role="line"
           id="tspan96-8-1"
           style="stroke-width:0.867707">Mmodel=</tspan><tspan
           x="492.97949 497.51788 502.0563 506.59476 511.13318 515.67157 520.21002 524.74847 529.28687 533.82526 538.36371 542.90216 547.44055 551.979 556.5174 561.05579 565.5943 570.13269 574.67108"
           y="-632.48358"
           sodipodi:role="line"
           id="tspan98-7-9"
           style="stroke-width:0.867707">&quot;Homoduplex.2State&quot;</tspan><tspan
           x="579.20947"
           y="-632.48358"
           id="tspan100-2-6"
           style="stroke-width:0.867707">,</tspan><tspan
           x="452.13367 456.67209 461.21048 465.74887 470.28735 479.3642"
           y="-622.11017"
           sodipodi:role="line"
           id="tspan102-8-2"
           style="stroke-width:0.867707">concT=</tspan><tspan
           x="488.44104 492.97949"
           y="-622.11017"
           sodipodi:role="line"
           id="tspan104-2-5"
           style="stroke-width:0.867707">80</tspan><tspan
           x="497.51788"
           y="-622.11017"
           id="tspan106-9-4"
           style="stroke-width:0.867707">,</tspan><tspan
           x="452.13367 456.67209 461.21048 465.74887 470.28735 479.3642"
           y="-611.73676"
           sodipodi:role="line"
           id="tspan108-9-4"
           style="stroke-width:0.867707">fitTs=</tspan><tspan
           x="488.44104"
           y="-611.73676"
           id="tspan110-6-9"
           style="stroke-width:0.867707">c</tspan><tspan
           x="492.97949"
           y="-611.73676"
           id="tspan112-0-9"
           style="stroke-width:0.867707">(</tspan><tspan
           x="497.51788 502.0563"
           y="-611.73676"
           sodipodi:role="line"
           id="tspan114-2-3"
           style="stroke-width:0.867707">20</tspan><tspan
           x="506.59476"
           y="-611.73676"
           id="tspan116-7-6"
           style="stroke-width:0.867707">,</tspan><tspan
           x="515.67157 520.21002"
           y="-611.73676"
           sodipodi:role="line"
           id="tspan118-6-0"
           style="stroke-width:0.867707">65</tspan><tspan
           x="524.74847 529.28687"
           y="-611.73676"
           sodipodi:role="line"
           id="tspan120-1-5"
           style="stroke-width:0.867707">))</tspan><tspan
           x="415.8262 420.36462 429.44147 433.97989 438.51831 447.59515 452.13358 456.672 461.21042 465.74884 470.28729 474.82568 479.36411 483.90256 488.44098 492.97943 502.05624 506.59467 511.13312 515.67151 520.20996 524.74841 529.2868"
           y="-592.3808"
           sodipodi:role="line"
           id="tspan122-3-0"
           style="stroke-width:0.867707">##[1]&quot;Individualcurves&quot;</tspan><tspan
           x="415.8262 420.36462 438.51831 443.05673 447.59515 452.13358 456.672 461.21042 515.67151 520.20996 551.97888 588.28632 615.51678 638.20892 642.74738"
           y="-582.00732"
           sodipodi:role="line"
           id="tspan124-2-2"
           style="stroke-width:0.867707">##SampleCtHSGTm</tspan><tspan
           x="415.8262 420.36462 429.44147 456.672 461.21042 470.28729 474.82568 479.36411 483.90256 488.44098 492.97943 497.51785 502.05624 506.59467 511.13312 515.67151 520.20996 529.2868 533.8252 538.36365 542.9021 547.44049 551.97888 561.05579 565.59418 570.13263 574.67102 579.20947 583.74786 588.28632 597.3631 601.90155 606.44 610.97839 615.51678 624.59369 629.13208 633.67053 638.20892 642.74738"
           y="-571.63397"
           sodipodi:role="line"
           id="tspan126-1-9"
           style="stroke-width:0.867707">##1145.259360e-04-55.61-0.1570-6.9250.19</tspan><tspan
           x="415.8262 420.36462 429.44147 456.672 461.21042 470.28729 474.82568 479.36411 483.90256 488.44098 492.97943 497.51785 502.05624 506.59467 511.13312 515.67151 520.20996 529.2868 533.8252 538.36365 542.9021 547.44049 551.97888 561.05579 565.59418 570.13263 574.67102 579.20947 583.74786 588.28632 597.3631 601.90155 606.44 610.97839 615.51678 624.59369 629.13208 633.67053 638.20892 642.74738"
           y="-561.2605"
           sodipodi:role="line"
           id="tspan128-5-4"
           style="stroke-width:0.867707">##2157.161730e-05-55.68-0.1574-6.8742.62</tspan><tspan
           x="415.8262 420.36462 429.44147 456.672 461.21042 470.28729 474.82568 479.36411 483.90256 488.44098 492.97943 497.51785 502.05624 506.59467 511.13312 515.67151 520.20996 529.2868 533.8252 538.36365 542.9021 547.44049 551.97888 561.05579 565.59418 570.13263 574.67102 579.20947 583.74786 588.28632 597.3631 601.90155 606.44 610.97839 615.51678 624.59369 629.13208 633.67053 638.20892 642.74738"
           y="-550.88702"
           sodipodi:role="line"
           id="tspan130-9-3"
           style="stroke-width:0.867707">##3161.518661e-05-59.44-0.1685-7.1838.77</tspan><tspan
           x="415.8262 420.36462 429.44147 456.672 461.21042 470.28729 474.82568 479.36411 483.90256 488.44098 492.97943 497.51785 502.05624 506.59467 511.13312 515.67151 520.20996 529.2868 533.8252 538.36365 542.9021 547.44049 551.97888 561.05579 565.59418 570.13263 574.67102 579.20947 583.74786 588.28632 597.3631 601.90155 606.44 610.97839 615.51678 624.59369 629.13208 633.67053 638.20892 642.74738"
           y="-540.51276"
           sodipodi:role="line"
           id="tspan132-9-5"
           style="stroke-width:0.867707">##4183.077518e-04-44.85-0.1238-6.4547.45</tspan><tspan
           x="415.8262 420.36462 429.44147 456.672 461.21042 470.28729 474.82568 479.36411 483.90256 488.44098 492.97943 497.51785 502.05624 506.59467 511.13312 515.67151 520.20996 529.2868 533.8252 538.36365 542.9021 547.44049 551.97888 561.05579 565.59418 570.13263 574.67102 579.20947 583.74786 588.28632 597.3631 601.90155 606.44 610.97839 615.51678 624.59369 629.13208 633.67053 638.20892 642.74738"
           y="-530.13922"
           sodipodi:role="line"
           id="tspan134-1-1"
           style="stroke-width:0.867707">##5194.351600e-05-53.15-0.1492-6.8640.95</tspan><tspan
           x="415.8262 420.36462 429.44147 456.672 461.21042 470.28729 474.82568 479.36411 483.90256 488.44098 492.97943 497.51785 502.05624 506.59467 511.13312 515.67151 520.20996 529.2868 533.8252 538.36365 542.9021 547.44049 551.97888 561.05579 565.59418 570.13263 574.67102 579.20947 583.74786 588.28632 597.3631 601.90155 606.44 610.97839 615.51678 624.59369 629.13208 633.67053 638.20892 642.74738"
           y="-519.76587"
           sodipodi:role="line"
           id="tspan136-4-7"
           style="stroke-width:0.867707">##6209.795616e-06-69.96-0.2029-7.0236.61</tspan><tspan
           x="415.8262 420.36462 429.44147 456.672 461.21042 470.28729 474.82568 479.36411 483.90256 488.44098 492.97943 497.51785 502.05624 506.59467 511.13312 515.67151 520.20996 529.2868 533.8252 538.36365 542.9021 547.44049 551.97888 561.05579 565.59418 570.13263 574.67102 579.20947 583.74786 588.28632 597.3631 601.90155 606.44 610.97839 615.51678 624.59369 629.13208 633.67053 638.20892 642.74738"
           y="-509.39236"
           sodipodi:role="line"
           id="tspan138-9-4"
           style="stroke-width:0.867707">##7221.509123e-04-58.39-0.1664-6.7944.41</tspan><tspan
           x="415.8262 420.36462 429.44147 456.672 461.21042 470.28729 474.82568 479.36411 483.90256 488.44098 492.97943 497.51785 502.05624 506.59467 511.13312 515.67151 520.20996 529.2868 533.8252 538.36365 542.9021 547.44049 551.97888 561.05579 565.59418 570.13263 574.67102 579.20947 583.74786 588.28632 597.3631 601.90155 606.44 610.97839 615.51678 624.59369 629.13208 633.67053 638.20892 642.74738"
           y="-499.01889"
           sodipodi:role="line"
           id="tspan140-1-3"
           style="stroke-width:0.867707">##8232.289100e-05-51.80-0.1446-6.9539.23</tspan><tspan
           x="415.8262 420.36462 429.44147 456.672 461.21042 470.28729 474.82568 479.36411 483.90256 488.44098 492.97943 497.51785 502.05624 506.59467 511.13312 515.67151 520.20996 529.2868 533.8252 538.36365 542.9021 547.44049 551.97888 561.05579 565.59418 570.13263 574.67102 579.20947 583.74786 588.28632 597.3631 601.90155 606.44 610.97839 615.51678 624.59369 629.13208 633.67053 638.20892 642.74738"
           y="-488.64548"
           sodipodi:role="line"
           id="tspan142-0-1"
           style="stroke-width:0.867707">##9246.984597e-06-57.50-0.1639-6.6733.54</tspan><tspan
           x="415.8262 420.36462 429.44147 433.97989 438.51831 447.59515 452.13358 456.672 461.21042 465.74884 470.28729 474.82568 479.36411 483.90256"
           y="-478.27115"
           sodipodi:role="line"
           id="tspan144-7-4"
           style="stroke-width:0.867707">##[1]&quot;Summary&quot;</tspan><tspan
           x="415.8262 420.36462 492.97943 497.51785 502.05624 506.59467 511.13312 515.67151 547.44049 556.51733 561.05579 565.59418 570.13263 606.44 620.05524 624.59369 629.13208 633.67053 660.90106 669.97791 674.5163 679.05481 683.5932 692.67004 697.2085 701.74689 706.28528 710.82373 715.36218 719.90057 724.43903 728.97742 733.51581 738.05432"
           y="-467.89774"
           sodipodi:role="line"
           id="tspan146-5-6"
           style="stroke-width:0.867707">##MethodHSE.HSSE.SGSE.GTm_at_0.1mM</tspan><tspan
           x="415.8262 420.36462 429.44147 443.05673 452.13358 456.672 461.21042 465.74884 470.28729 474.82568 479.36411 483.90256 488.44098 492.97943 502.05624 506.59467 511.13312 515.67151 524.74841 529.2868 533.8252 538.36365 542.9021 547.44049 556.51733 561.05579 565.59418 570.13263 579.20947 583.74786 588.28632 592.82471 597.3631 601.90155 606.44 615.51678 620.05524 624.59369 629.13208 633.67053 642.74738 647.28583 651.82422 656.36261 660.90106 669.97791 674.5163 679.05481 683.5932 719.90057 724.43903 728.97742 733.51581 738.05432"
           y="-457.52426"
           sodipodi:role="line"
           id="tspan148-8-9"
           style="stroke-width:0.867707">##11individualfits-56.266.75-159.3021.34-6.860.2143.62</tspan><tspan
           x="415.8262 420.36462 429.44147 438.51831 447.59515 452.13358 461.21042 465.74884 470.28729 474.82568 479.36411 483.90256 492.97943 497.51785 502.05624 506.59467 511.13312 515.67151 524.74841 529.2868 533.8252 538.36365 542.9021 547.44049 556.51733 561.05579 565.59418 570.13263 579.20947 583.74786 588.28632 592.82471 597.3631 601.90155 606.44 615.51678 620.05524 624.59369 629.13208 633.67053 642.74738 647.28583 651.82422 656.36261 660.90106 669.97791 674.5163 679.05481 683.5932 719.90057 724.43903 728.97742 733.51581 738.05432"
           y="-447.15085"
           sodipodi:role="line"
           id="tspan150-7-4"
           style="stroke-width:0.867707">##22Tmversusln[Ct]-58.243.50-165.4211.12-6.930.0743.85</tspan><tspan
           x="415.8262 420.36462 429.44147 465.74884 474.82568 479.36411 483.90256 488.44098 492.97943 497.51785 506.59467 511.13312 515.67151 524.74841 529.2868 533.8252 538.36365 542.9021 547.44049 556.51733 561.05579 565.59418 570.13263 579.20947 583.74786 588.28632 592.82471 597.3631 601.90155 606.44 620.05524 624.59369 629.13208 633.67053 642.74738 647.28583 651.82422 656.36261 660.90106 669.97791 674.5163 679.05481 683.5932 719.90057 724.43903 728.97742 733.51581 738.05432"
           y="-436.77744"
           sodipodi:role="line"
           id="tspan152-0-2"
           style="stroke-width:0.867707">##33Globalfit-53.580.48-150.781.50-6.820.0243.74</tspan><tspan
           x="415.8262 420.36462 438.51831 443.05673 447.59515 452.13358 456.672 461.21042 465.74884 470.28729 474.82568 479.36411 483.90256 488.44098 492.97943 497.51785"
           y="-426.40396"
           sodipodi:role="line"
           id="tspan154-4-2"
           style="stroke-width:0.867707">##SE.Tm_at_0.1mM</tspan><tspan
           x="415.8262 420.36462 429.44147 483.90256 488.44098 492.97943 497.51785"
           y="-416.02969"
           sodipodi:role="line"
           id="tspan156-8-6"
           style="stroke-width:0.867707">##17.85</tspan><tspan
           x="415.8262 420.36462 429.44147 483.90256 488.44098 492.97943 497.51785"
           y="-405.65625"
           sodipodi:role="line"
           id="tspan158-0-4"
           style="stroke-width:0.867707">##23.95</tspan><tspan
           x="415.8262 420.36462 429.44147 483.90256 488.44098 492.97943 497.51785"
           y="-395.28281"
           sodipodi:role="line"
           id="tspan160-4-1"
           style="stroke-width:0.867707">##30.59</tspan><tspan
           x="415.8262 420.36462 429.44147 433.97989 438.51831 447.59515 452.13358 456.672 461.21042 465.74884 470.28729 474.82568 479.36411 483.90256 488.44098 492.97943 502.05624 506.59467 511.13312 515.67151 520.20996 529.2868 533.8252 538.36365 542.9021 547.44049 551.97888 556.51733 565.59418 570.13263 574.67102 579.20947 583.74786 588.28632 592.82471 597.3631"
           y="-384.90939"
           sodipodi:role="line"
           id="tspan162-2-2"
           style="stroke-width:0.867707">##[1]&quot;fractionalerrorbetweenmethods&quot;</tspan><tspan
           x="415.8262 420.36462 479.36411 529.2868 579.20947"
           y="-374.53592"
           sodipodi:role="line"
           id="tspan164-9-8"
           style="stroke-width:0.867707">##HSG</tspan><tspan
           x="415.8262 420.36462 429.44147 438.51831 443.05673 447.59515 452.13358 456.672 461.21042 465.74884 470.28729 474.82568 479.36411 488.44098 492.97943 497.51785 502.05624 506.59467 511.13312 515.67151 520.20996 524.74841 529.2868 538.36365 542.9021 547.44049 551.97888 556.51733 561.05579 565.59418 570.13263 574.67102 579.20947"
           y="-364.16162"
           sodipodi:role="line"
           id="tspan166-6-8"
           style="stroke-width:0.867707">##10.083174680.092365930.01601164</tspan><tspan
           x="415.8262 420.36462 429.44147 433.97989 438.51831 447.59515 452.13358 456.672 465.74884 470.28729 474.82568 483.90256 488.44098 497.51785 502.05624 506.59467 515.67151 520.20996 529.2868 533.8252 538.36365 542.9021 547.44049 551.97888 556.51733 561.05579 570.13263 574.67102 579.20947 588.28632 592.82471 601.90155 606.44 615.51678 620.05524 629.13208 633.67053 638.20892 642.74738 647.28583 651.82422 656.36261 660.90106 665.43951 669.97791 679.05481 683.5932 688.13159 697.2085 701.74689 706.28528 715.36218 719.90057 728.97742 733.51581 738.05432 747.1311 751.66949 756.20801 760.7464 765.28479 769.82324 774.36163 778.90009"
           y="-353.78821"
           sodipodi:role="line"
           id="tspan168-1-9"
           style="stroke-width:0.867707">##[1]&quot;dHanddGareinkcal/molanddSisincal/mol/K.TmsareindegCelsius&quot;</tspan></text><text
         transform="matrix(1,0,0,-1,59.246354,245.81201)"
         style="font-variant:normal;font-weight:normal;font-size:8.64462px;font-family:LMMono10;-inkscape-font-specification:LMMono10-Regular;writing-mode:lr-tb;fill:#000000;fill-opacity:1;fill-rule:nonzero;stroke:none;stroke-width:0.867707"
         id="text170-9-0-2"
         x="2.6132088"
         y="-499.82404"
         clip-path="url(#clipPath2902)"><tspan
           x="2.6132088 7.1516304"
           y="-499.82404"
           sodipodi:role="line"
           id="tspan60-3-4-8"
           style="stroke-width:0.867707">df</tspan><tspan
           x="16.228474"
           y="-499.82404"
           id="tspan62-3-2-8"
           style="stroke-width:0.867707">=</tspan><tspan
           x="25.305317 29.843739 34.38216 38.920582 43.459003 47.997425 52.535847 57.074299 61.61269 66.151108 70.68956 75.227982 79.766434"
           y="-499.82404"
           sodipodi:role="line"
           id="tspan64-8-2-8"
           style="stroke-width:0.867707">df.absorbance</tspan><tspan
           x="88.843246 93.381668 97.92012"
           y="-499.82404"
           sodipodi:role="line"
           id="tspan66-0-2-6"
           style="stroke-width:0.867707">%&gt;%</tspan><tspan
           x="106.99696 111.53542 116.07381 120.6122 125.15065 129.6891"
           y="-499.82404"
           sodipodi:role="line"
           id="tspan68-5-0-8"
           style="stroke-width:0.867707">filter</tspan><tspan
           x="134.22749 138.76588 143.30434 147.84279 152.38118 156.91963 161.45802 165.99648 170.53487 175.07332 179.61171"
           y="-499.82404"
           sodipodi:role="line"
           id="tspan70-6-5-3"
           style="stroke-width:0.867707">(Experiment</tspan><tspan
           x="188.68855 193.22701"
           y="-499.82404"
           sodipodi:role="line"
           id="tspan72-6-5-8"
           style="stroke-width:0.867707">==</tspan><tspan
           x="202.30379 206.84227 211.38072 215.91911 220.45757 224.99596 234.07286 238.61125 243.14964 247.6881"
           y="-499.82404"
           sodipodi:role="line"
           id="tspan74-4-2-3"
           style="stroke-width:0.867707">&quot;CROWDDP5&quot;</tspan><tspan
           x="252.22655"
           y="-499.82404"
           id="tspan76-0-9-3"
           style="stroke-width:0.867707">)</tspan><tspan
           x="2.6132088 7.1516304 11.690052 16.228474 20.766895 25.305317 29.843739"
           y="-479.07629"
           sodipodi:role="line"
           id="tspan78-0-0-3"
           style="stroke-width:0.867707">meltR.A</tspan><tspan
           x="34.38216 38.920582 43.459003 47.997425"
           y="-479.07629"
           sodipodi:role="line"
           id="tspan80-4-2-8"
           style="stroke-width:0.867707">(df,</tspan><tspan
           x="38.920673 43.459095 47.997486 52.535877 57.07436 61.612751 66.151199 75.228043"
           y="-468.70288"
           sodipodi:role="line"
           id="tspan82-6-8-0"
           style="stroke-width:0.867707">NucAcid=</tspan><tspan
           x="84.304886"
           y="-468.70288"
           id="tspan84-2-3-4"
           style="stroke-width:0.867707">c</tspan><tspan
           x="88.843307"
           y="-468.70288"
           id="tspan86-6-8-7"
           style="stroke-width:0.867707">(</tspan><tspan
           x="93.38176 97.920181 102.45857 106.99702 111.53548"
           y="-468.70288"
           sodipodi:role="line"
           id="tspan88-7-0-6"
           style="stroke-width:0.867707">&quot;RNA&quot;</tspan><tspan
           x="116.07387"
           y="-468.70288"
           id="tspan90-5-4-8"
           style="stroke-width:0.867707">,</tspan><tspan
           x="125.15071 129.68916 134.22755 138.76601 143.3044 147.84279 152.3813 156.91969"
           y="-468.70288"
           sodipodi:role="line"
           id="tspan92-6-0-9"
           style="stroke-width:0.867707">&quot;ACCGGU&quot;</tspan><tspan
           x="161.45808 165.99648"
           y="-468.70288"
           sodipodi:role="line"
           id="tspan94-9-9-0"
           style="stroke-width:0.867707">),</tspan><tspan
           x="38.920673 43.459095 47.997486 52.535877 57.07436 61.612751 70.689621"
           y="-458.32941"
           sodipodi:role="line"
           id="tspan96-8-1-6"
           style="stroke-width:0.867707">Mmodel=</tspan><tspan
           x="79.766495 84.304886 88.843307 93.38176 97.920181 102.45857 106.99702 111.53548 116.07387 120.61226 125.15071 129.68916 134.22755 138.76601 143.3044 147.84279 152.3813 156.91969 161.45808"
           y="-458.32941"
           sodipodi:role="line"
           id="tspan98-7-9-8"
           style="stroke-width:0.867707">&quot;Homoduplex.2State&quot;</tspan><tspan
           x="165.99648"
           y="-458.32941"
           id="tspan100-2-6-7"
           style="stroke-width:0.867707">,</tspan><tspan
           x="38.920673 43.459095 47.997486 52.535877 57.07436 66.151199"
           y="-447.95599"
           sodipodi:role="line"
           id="tspan102-8-2-9"
           style="stroke-width:0.867707">concT=</tspan><tspan
           x="75.228043 79.766495"
           y="-447.95599"
           sodipodi:role="line"
           id="tspan104-2-5-0"
           style="stroke-width:0.867707">80</tspan><tspan
           x="84.304886"
           y="-447.95599"
           id="tspan106-9-4-3"
           style="stroke-width:0.867707">,</tspan><tspan
           x="38.920673 43.459095 47.997486 52.535877 57.07436 66.151199"
           y="-437.58258"
           sodipodi:role="line"
           id="tspan108-9-4-3"
           style="stroke-width:0.867707">fitTs=</tspan><tspan
           x="75.228043"
           y="-437.58258"
           id="tspan110-6-9-3"
           style="stroke-width:0.867707">c</tspan><tspan
           x="79.766495"
           y="-437.58258"
           id="tspan112-0-9-7"
           style="stroke-width:0.867707">(</tspan><tspan
           x="84.304886 88.843307"
           y="-437.58258"
           sodipodi:role="line"
           id="tspan114-2-3-3"
           style="stroke-width:0.867707">20</tspan><tspan
           x="93.38176"
           y="-437.58258"
           id="tspan116-7-6-2"
           style="stroke-width:0.867707">,</tspan><tspan
           x="102.45857 106.99702"
           y="-437.58258"
           sodipodi:role="line"
           id="tspan118-6-0-6"
           style="stroke-width:0.867707">65</tspan><tspan
           x="111.53548 116.07387"
           y="-437.58258"
           sodipodi:role="line"
           id="tspan120-1-5-5"
           style="stroke-width:0.867707">))</tspan><tspan
           x="2.6132088 7.1516304 16.228474 20.766895 25.305317 34.38216 38.920582 43.459003 47.997425 52.535847 57.074299 61.61269 66.151108 70.68956 75.227982 79.766434 88.843246 93.381668 97.92012 102.45851 106.99696 111.53542 116.07381"
           y="-418.22662"
           sodipodi:role="line"
           id="tspan122-3-0-2"
           style="stroke-width:0.867707">##[1]&quot;Individualcurves&quot;</tspan><tspan
           x="2.6132088 7.1516304 25.305317 29.843739 34.38216 38.920582 43.459003 47.997425 102.45851 106.99696 138.76588 175.07332 202.30379 224.99596 229.53441"
           y="-407.85315"
           sodipodi:role="line"
           id="tspan124-2-2-6"
           style="stroke-width:0.867707">##SampleCtHSGTm</tspan><tspan
           x="2.6132088 7.1516304 16.228474 43.459003 47.997425 57.074299 61.61269 66.151108 70.68956 75.227982 79.766434 84.304855 88.843246 93.381668 97.92012 102.45851 106.99696 116.07381 120.6122 125.15065 129.6891 134.22749 138.76588 147.84279 152.38118 156.91963 161.45802 165.99648 170.53487 175.07332 184.1501 188.68855 193.22701 197.7654 202.30379 211.38072 215.91911 220.45757 224.99596 229.53441"
           y="-397.4798"
           sodipodi:role="line"
           id="tspan126-1-9-5"
           style="stroke-width:0.867707">##1145.259360e-04-55.61-0.1570-6.9250.19</tspan><tspan
           x="2.6132088 7.1516304 16.228474 43.459003 47.997425 57.074299 61.61269 66.151108 70.68956 75.227982 79.766434 84.304855 88.843246 93.381668 97.92012 102.45851 106.99696 116.07381 120.6122 125.15065 129.6891 134.22749 138.76588 147.84279 152.38118 156.91963 161.45802 165.99648 170.53487 175.07332 184.1501 188.68855 193.22701 197.7654 202.30379 211.38072 215.91911 220.45757 224.99596 229.53441"
           y="-387.10632"
           sodipodi:role="line"
           id="tspan128-5-4-8"
           style="stroke-width:0.867707">##2157.161730e-05-55.68-0.1574-6.8742.62</tspan><tspan
           x="2.6132088 7.1516304 16.228474 43.459003 47.997425 57.074299 61.61269 66.151108 70.68956 75.227982 79.766434 84.304855 88.843246 93.381668 97.92012 102.45851 106.99696 116.07381 120.6122 125.15065 129.6891 134.22749 138.76588 147.84279 152.38118 156.91963 161.45802 165.99648 170.53487 175.07332 184.1501 188.68855 193.22701 197.7654 202.30379 211.38072 215.91911 220.45757 224.99596 229.53441"
           y="-376.73285"
           sodipodi:role="line"
           id="tspan130-9-3-7"
           style="stroke-width:0.867707">##3161.518661e-05-59.44-0.1685-7.1838.77</tspan><tspan
           x="2.6132088 7.1516304 16.228474 43.459003 47.997425 57.074299 61.61269 66.151108 70.68956 75.227982 79.766434 84.304855 88.843246 93.381668 97.92012 102.45851 106.99696 116.07381 120.6122 125.15065 129.6891 134.22749 138.76588 147.84279 152.38118 156.91963 161.45802 165.99648 170.53487 175.07332 184.1501 188.68855 193.22701 197.7654 202.30379 211.38072 215.91911 220.45757 224.99596 229.53441"
           y="-366.35858"
           sodipodi:role="line"
           id="tspan132-9-5-9"
           style="stroke-width:0.867707">##4183.077518e-04-44.85-0.1238-6.4547.45</tspan><tspan
           x="2.6132088 7.1516304 16.228474 43.459003 47.997425 57.074299 61.61269 66.151108 70.68956 75.227982 79.766434 84.304855 88.843246 93.381668 97.92012 102.45851 106.99696 116.07381 120.6122 125.15065 129.6891 134.22749 138.76588 147.84279 152.38118 156.91963 161.45802 165.99648 170.53487 175.07332 184.1501 188.68855 193.22701 197.7654 202.30379 211.38072 215.91911 220.45757 224.99596 229.53441"
           y="-355.98505"
           sodipodi:role="line"
           id="tspan134-1-1-6"
           style="stroke-width:0.867707">##5194.351600e-05-53.15-0.1492-6.8640.95</tspan><tspan
           x="2.6132088 7.1516304 16.228474 43.459003 47.997425 57.074299 61.61269 66.151108 70.68956 75.227982 79.766434 84.304855 88.843246 93.381668 97.92012 102.45851 106.99696 116.07381 120.6122 125.15065 129.6891 134.22749 138.76588 147.84279 152.38118 156.91963 161.45802 165.99648 170.53487 175.07332 184.1501 188.68855 193.22701 197.7654 202.30379 211.38072 215.91911 220.45757 224.99596 229.53441"
           y="-345.61169"
           sodipodi:role="line"
           id="tspan136-4-7-0"
           style="stroke-width:0.867707">##6209.795616e-06-69.96-0.2029-7.0236.61</tspan><tspan
           x="2.6132088 7.1516304 16.228474 43.459003 47.997425 57.074299 61.61269 66.151108 70.68956 75.227982 79.766434 84.304855 88.843246 93.381668 97.92012 102.45851 106.99696 116.07381 120.6122 125.15065 129.6891 134.22749 138.76588 147.84279 152.38118 156.91963 161.45802 165.99648 170.53487 175.07332 184.1501 188.68855 193.22701 197.7654 202.30379 211.38072 215.91911 220.45757 224.99596 229.53441"
           y="-335.23819"
           sodipodi:role="line"
           id="tspan138-9-4-4"
           style="stroke-width:0.867707">##7221.509123e-04-58.39-0.1664-6.7944.41</tspan><tspan
           x="2.6132088 7.1516304 16.228474 43.459003 47.997425 57.074299 61.61269 66.151108 70.68956 75.227982 79.766434 84.304855 88.843246 93.381668 97.92012 102.45851 106.99696 116.07381 120.6122 125.15065 129.6891 134.22749 138.76588 147.84279 152.38118 156.91963 161.45802 165.99648 170.53487 175.07332 184.1501 188.68855 193.22701 197.7654 202.30379 211.38072 215.91911 220.45757 224.99596 229.53441"
           y="-324.86472"
           sodipodi:role="line"
           id="tspan140-1-3-1"
           style="stroke-width:0.867707">##8232.289100e-05-51.80-0.1446-6.9539.23</tspan><tspan
           x="2.6132088 7.1516304 16.228474 43.459003 47.997425 57.074299 61.61269 66.151108 70.68956 75.227982 79.766434 84.304855 88.843246 93.381668 97.92012 102.45851 106.99696 116.07381 120.6122 125.15065 129.6891 134.22749 138.76588 147.84279 152.38118 156.91963 161.45802 165.99648 170.53487 175.07332 184.1501 188.68855 193.22701 197.7654 202.30379 211.38072 215.91911 220.45757 224.99596 229.53441"
           y="-314.4913"
           sodipodi:role="line"
           id="tspan142-0-1-0"
           style="stroke-width:0.867707">##9246.984597e-06-57.50-0.1639-6.6733.54</tspan><tspan
           x="2.6132088 7.1516304 16.228474 20.766895 25.305317 34.38216 38.920582 43.459003 47.997425 52.535847 57.074299 61.61269 66.151108 70.68956"
           y="-304.11697"
           sodipodi:role="line"
           id="tspan144-7-4-4"
           style="stroke-width:0.867707">##[1]&quot;Summary&quot;</tspan><tspan
           x="2.6132088 7.1516304 79.766434 84.304855 88.843246 93.381668 97.92012 102.45851 134.22749 143.30434 147.84279 152.38118 156.91963 193.22701 206.84227 211.38072 215.91911 220.45757 247.6881 256.76495 261.30334 265.84186 270.38025 279.45709 283.99554 288.53394 293.07233 297.61078 302.14923 306.68762 311.22607 315.76447 320.30286 324.84137"
           y="-293.74356"
           sodipodi:role="line"
           id="tspan146-5-6-8"
           style="stroke-width:0.867707">##MethodHSE.HSSE.SGSE.GTm_at_0.1mM</tspan><tspan
           x="2.6132088 7.1516304 16.228474 29.843739 38.920582 43.459003 47.997425 52.535847 57.074299 61.61269 66.151108 70.68956 75.227982 79.766434 88.843246 93.381668 97.92012 102.45851 111.53542 116.07381 120.6122 125.15065 129.6891 134.22749 143.30434 147.84279 152.38118 156.91963 165.99648 170.53487 175.07332 179.61171 184.1501 188.68855 193.22701 202.30379 206.84227 211.38072 215.91911 220.45757 229.53441 234.07286 238.61125 243.14964 247.6881 256.76495 261.30334 265.84186 270.38025 306.68762 311.22607 315.76447 320.30286 324.84137"
           y="-283.37009"
           sodipodi:role="line"
           id="tspan148-8-9-7"
           style="stroke-width:0.867707">##11individualfits-56.266.75-159.3021.34-6.860.2143.62</tspan><tspan
           x="2.6132088 7.1516304 16.228474 25.305317 34.38216 38.920582 47.997425 52.535847 57.074299 61.61269 66.151108 70.68956 79.766434 84.304855 88.843246 93.381668 97.92012 102.45851 111.53542 116.07381 120.6122 125.15065 129.6891 134.22749 143.30434 147.84279 152.38118 156.91963 165.99648 170.53487 175.07332 179.61171 184.1501 188.68855 193.22701 202.30379 206.84227 211.38072 215.91911 220.45757 229.53441 234.07286 238.61125 243.14964 247.6881 256.76495 261.30334 265.84186 270.38025 306.68762 311.22607 315.76447 320.30286 324.84137"
           y="-272.99667"
           sodipodi:role="line"
           id="tspan150-7-4-0"
           style="stroke-width:0.867707">##22Tmversusln[Ct]-58.243.50-165.4211.12-6.930.0743.85</tspan><tspan
           x="2.6132088 7.1516304 16.228474 52.535847 61.61269 66.151108 70.68956 75.227982 79.766434 84.304855 93.381668 97.92012 102.45851 111.53542 116.07381 120.6122 125.15065 129.6891 134.22749 143.30434 147.84279 152.38118 156.91963 165.99648 170.53487 175.07332 179.61171 184.1501 188.68855 193.22701 206.84227 211.38072 215.91911 220.45757 229.53441 234.07286 238.61125 243.14964 247.6881 256.76495 261.30334 265.84186 270.38025 306.68762 311.22607 315.76447 320.30286 324.84137"
           y="-262.62326"
           sodipodi:role="line"
           id="tspan152-0-2-8"
           style="stroke-width:0.867707">##33Globalfit-53.580.48-150.781.50-6.820.0243.74</tspan><tspan
           x="2.6132088 7.1516304 25.305317 29.843739 34.38216 38.920582 43.459003 47.997425 52.535847 57.074299 61.61269 66.151108 70.68956 75.227982 79.766434 84.304855"
           y="-252.24977"
           sodipodi:role="line"
           id="tspan154-4-2-6"
           style="stroke-width:0.867707">##SE.Tm_at_0.1mM</tspan><tspan
           x="2.6132088 7.1516304 16.228474 70.68956 75.227982 79.766434 84.304855"
           y="-241.8755"
           sodipodi:role="line"
           id="tspan156-8-6-2"
           style="stroke-width:0.867707">##17.85</tspan><tspan
           x="2.6132088 7.1516304 16.228474 70.68956 75.227982 79.766434 84.304855"
           y="-231.50206"
           sodipodi:role="line"
           id="tspan158-0-4-4"
           style="stroke-width:0.867707">##23.95</tspan><tspan
           x="2.6132088 7.1516304 16.228474 70.68956 75.227982 79.766434 84.304855"
           y="-221.12862"
           sodipodi:role="line"
           id="tspan160-4-1-7"
           style="stroke-width:0.867707">##30.59</tspan><tspan
           x="2.6132088 7.1516304 16.228474 20.766895 25.305317 34.38216 38.920582 43.459003 47.997425 52.535847 57.074299 61.61269 66.151108 70.68956 75.227982 79.766434 88.843246 93.381668 97.92012 102.45851 106.99696 116.07381 120.6122 125.15065 129.6891 134.22749 138.76588 143.30434 152.38118 156.91963 161.45802 165.99648 170.53487 175.07332 179.61171 184.1501"
           y="-210.7552"
           sodipodi:role="line"
           id="tspan162-2-2-9"
           style="stroke-width:0.867707">##[1]&quot;fractionalerrorbetweenmethods&quot;</tspan><tspan
           x="2.6132088 7.1516304 66.151108 116.07381 165.99648"
           y="-200.38173"
           sodipodi:role="line"
           id="tspan164-9-8-3"
           style="stroke-width:0.867707">##HSG</tspan><tspan
           x="2.6132088 7.1516304 16.228474 25.305317 29.843739 34.38216 38.920582 43.459003 47.997425 52.535847 57.074299 61.61269 66.151108 75.227982 79.766434 84.304855 88.843246 93.381668 97.92012 102.45851 106.99696 111.53542 116.07381 125.15065 129.6891 134.22749 138.76588 143.30434 147.84279 152.38118 156.91963 161.45802 165.99648"
           y="-190.00743"
           sodipodi:role="line"
           id="tspan166-6-8-9"
           style="stroke-width:0.867707">##10.083174680.092365930.01601164</tspan><tspan
           x="2.6132088 7.1516304 16.228474 20.766895 25.305317 34.38216 38.920582 43.459003 52.535847 57.074299 61.61269 70.68956 75.227982 84.304855 88.843246 93.381668 102.45851 106.99696 116.07381 120.6122 125.15065 129.6891 134.22749 138.76588 143.30434 147.84279 156.91963 161.45802 165.99648 175.07332 179.61171 188.68855 193.22701 202.30379 206.84227 215.91911 220.45757 224.99596 229.53441 234.07286 238.61125 243.14964 247.6881 252.22655 256.76495 265.84186 270.38025 274.91864 283.99554 288.53394 293.07233 302.14923 306.68762 315.76447 320.30286 324.84137 333.91815 338.45654 342.99506 347.53345 352.07184 356.61029 361.14868 365.68713"
           y="-179.63402"
           sodipodi:role="line"
           id="tspan168-1-9-2"
           style="stroke-width:0.867707">##[1]&quot;dHanddGareinkcal/molanddSisincal/mol/K.TmsareindegCelsius&quot;</tspan></text><path
         style="fill:#698cdb;fill-opacity:1;stroke:none;stroke-width:0.75px;stroke-linecap:butt;stroke-linejoin:miter;stroke-opacity:0.843137"
         d="m 71.272909,622.48559 15.905458,17.50184 5.089832,-14.1239 -13.890867,-0.49875 13.348561,-127.22187 -14.03461,-25.45788 13.19175,-12.60371 -8.511369,-25.75407 7.733846,-3.81356 -0.612,-18.31426 -36.351906,-0.75792 c 3.567148,7.57627 3.196773,16.06756 4.983114,22.34344 z"
         id="path3123"
         sodipodi:nodetypes="ccccccccccccc" /></g><text
       xml:space="preserve"
       style="font-size:12px;line-height:1.25;font-family:sans-serif;-inkscape-font-specification:'sans-serif, Normal';letter-spacing:0px;word-spacing:0px;writing-mode:lr-tb;stroke-width:0.75"
       x="18.329498"
       y="-477.28052"
       id="text12449"
       transform="scale(1,-1)"><tspan
         sodipodi:role="line"
         id="tspan12447"
         style="font-size:12px;stroke-width:0.75"
         x="18.329498"
         y="-477.28052" /></text><text
       xml:space="preserve"
       style="font-size:10px;line-height:1.25;font-family:sans-serif;-inkscape-font-specification:'sans-serif, Normal';letter-spacing:0px;word-spacing:0px;writing-mode:lr-tb;stroke-width:0.75"
       x="5.1671562"
       y="-1119.7241"
       id="text25878"
       transform="scale(1,-1)"><tspan
         sodipodi:role="line"
         id="tspan25876"
         style="font-size:10px;stroke-width:0.75"
         x="5.1671562"
         y="-1119.7241">A    Usage</tspan></text><text
       xml:space="preserve"
       style="font-size:10px;line-height:1.25;font-family:sans-serif;-inkscape-font-specification:'sans-serif, Normal';letter-spacing:0px;word-spacing:0px;writing-mode:lr-tb;stroke-width:0.75"
       x="6.4824429"
       y="-1049.8562"
       id="text25878-1"
       transform="scale(1,-1)"><tspan
         sodipodi:role="line"
         id="tspan25876-0"
         style="font-size:10px;stroke-width:0.75"
         x="6.4824429"
         y="-1049.8562">B    Output</tspan></text><text
       xml:space="preserve"
       style="font-size:5px;line-height:1.25;font-family:sans-serif;-inkscape-font-specification:'sans-serif, Normal';letter-spacing:0px;word-spacing:0px;writing-mode:lr-tb;fill:#e0c3ec;fill-opacity:1;stroke-width:0.75"
       x="146.6915"
       y="-1108.8346"
       id="text39153"
       transform="scale(1,-1)"><tspan
         sodipodi:role="line"
         id="tspan39151"
         style="font-size:5px;fill:#e0c3ec;fill-opacity:1;stroke-width:0.75"
         x="146.6915"
         y="-1108.8346">(1) Absorbance data</tspan></text><text
       xml:space="preserve"
       style="font-size:5px;line-height:1.25;font-family:sans-serif;-inkscape-font-specification:'sans-serif, Normal';letter-spacing:0px;word-spacing:0px;writing-mode:lr-tb;fill:#e0c3ec;fill-opacity:1;stroke-width:0.75"
       x="146.44977"
       y="-1099.377"
       id="text39153-5"
       transform="scale(1,-1)"><tspan
         sodipodi:role="line"
         id="tspan39151-4"
         style="font-size:5px;fill:#e0c3ec;fill-opacity:1;stroke-width:0.75"
         x="146.44977"
         y="-1099.377">(2) Nucleic acid sequence </tspan></text><text
       xml:space="preserve"
       style="font-size:5px;line-height:1.25;font-family:sans-serif;-inkscape-font-specification:'sans-serif, Normal';letter-spacing:0px;word-spacing:0px;writing-mode:lr-tb;fill:#e0c3ec;fill-opacity:1;stroke-width:0.75"
       x="146.41812"
       y="-1090.7618"
       id="text39153-5-1"
       transform="scale(1,-1)"><tspan
         sodipodi:role="line"
         id="tspan39151-4-5"
         style="font-size:5px;fill:#e0c3ec;fill-opacity:1;stroke-width:0.75"
         x="146.41812"
         y="-1090.7618">(3) Duplex type</tspan></text><text
       xml:space="preserve"
       style="font-size:5px;line-height:1.25;font-family:sans-serif;-inkscape-font-specification:'sans-serif, Normal';letter-spacing:0px;word-spacing:0px;writing-mode:lr-tb;fill:#e0c3ec;fill-opacity:1;stroke-width:0.75"
       x="146.30246"
       y="-1081.051"
       id="text39153-5-1-5"
       transform="scale(1,-1)"><tspan
         sodipodi:role="line"
         id="tspan39151-4-5-4"
         style="font-size:5px;fill:#e0c3ec;fill-opacity:1;stroke-width:0.75"
         x="146.30246"
         y="-1081.051">(4) Temperature used to </tspan><tspan
         sodipodi:role="line"
         style="font-size:5px;fill:#e0c3ec;fill-opacity:1;stroke-width:0.75"
         x="146.30246"
         y="-1074.801"
         id="tspan67262">      determine the concentration</tspan><tspan
         sodipodi:role="line"
         style="font-size:5px;fill:#e0c3ec;fill-opacity:1;stroke-width:0.75"
         x="146.30246"
         y="-1068.551"
         id="tspan67264">(5) Temperature range for the fit</tspan></text><path
       style="fill:none;stroke:#000000;stroke-width:2.85476;stroke-linecap:butt;stroke-linejoin:miter;stroke-miterlimit:4;stroke-dasharray:none;stroke-opacity:1;marker-end:url(#Arrow2Send)"
       d="m 117.99957,1063.0418 0.0735,-15.1652"
       id="path78203"
       sodipodi:nodetypes="cc" /><text
       xml:space="preserve"
       style="font-size:10px;line-height:1.25;font-family:sans-serif;-inkscape-font-specification:'sans-serif, Normal';letter-spacing:0px;word-spacing:0px;writing-mode:lr-tb;stroke-width:0.75"
       x="125.30047"
       y="-1050.0699"
       id="text81274"
       transform="scale(1,-1)"><tspan
         sodipodi:role="line"
         id="tspan81272"
         style="font-size:10px;stroke-width:0.75"
         x="125.30047"
         y="-1050.0699">Fit</tspan></text><path
       style="fill:none;stroke:#e0c3ec;stroke-width:0.75px;stroke-linecap:butt;stroke-linejoin:miter;stroke-opacity:1;marker-start:url(#DotS);marker-end:url(#DotS)"
       d="m 144.94665,1109.7494 -97.577988,-2.2839"
       id="path83037" /><path
       style="fill:none;stroke:#e0c3ec;stroke-width:0.75px;stroke-linecap:butt;stroke-linejoin:miter;stroke-opacity:1;marker-start:url(#DotS);marker-end:url(#DotS)"
       d="m 144.39151,1100.4668 -7.69246,-0.012"
       id="path83037-5"
       sodipodi:nodetypes="cc" /><path
       style="fill:none;stroke:#e0c3ec;stroke-width:0.75px;stroke-linecap:butt;stroke-linejoin:miter;stroke-opacity:1;marker-start:url(#DotS);marker-end:url(#DotS)"
       d="m 144.55629,1092.3717 -7.66242,-0.2018"
       id="path83037-0"
       sodipodi:nodetypes="cc" /><path
       style="fill:none;stroke:#e0c3ec;stroke-width:0.75px;stroke-linecap:butt;stroke-linejoin:miter;stroke-opacity:1;marker-start:url(#DotS);marker-end:url(#DotS)"
       d="m 144.13202,1082.38 -68.020153,0.047"
       id="path83037-3"
       sodipodi:nodetypes="cc" /><path
       style="fill:none;stroke:#e0c3ec;stroke-width:0.75px;stroke-linecap:butt;stroke-linejoin:miter;stroke-opacity:1;marker-start:url(#DotS-3);marker-end:url(#DotS-3)"
       d="m 135.46287,1033.5167 -10.18073,-5.4479"
       id="path83037-3-5"
       sodipodi:nodetypes="cc" /><path
       style="fill:none;stroke:#e0c3ec;stroke-width:0.75px;stroke-linecap:butt;stroke-linejoin:miter;stroke-opacity:1;marker-start:url(#DotS-3-1);marker-end:url(#DotS-3-1)"
       d="M 137.05236,984.5834 123.19745,974.0326"
       id="path83037-3-5-8"
       sodipodi:nodetypes="cc" /><path
       style="fill:none;stroke:#e0c3ec;stroke-width:0.75px;stroke-linecap:butt;stroke-linejoin:miter;stroke-opacity:1;marker-start:url(#DotS-3-1-7);marker-end:url(#DotS-3-1-7)"
       d="M 156.63982,940.16895 95.603218,938.52372"
       id="path83037-3-5-8-3"
       sodipodi:nodetypes="cc" /><path
       style="fill:none;stroke:#e0c3ec;stroke-width:0.75px;stroke-linecap:butt;stroke-linejoin:miter;stroke-opacity:1;marker-start:url(#DotS);marker-end:url(#DotS)"
       d="m 144.27832,1070.206 -43.00078,4.9804"
       id="path83037-58"
       sodipodi:nodetypes="cc" /><text
       xml:space="preserve"
       style="font-size:5px;line-height:1.25;font-family:sans-serif;-inkscape-font-specification:'sans-serif, Normal';letter-spacing:0px;word-spacing:0px;writing-mode:lr-tb;fill:#e0c3ec;fill-opacity:1;stroke-width:0.75"
       x="137.54118"
       y="-1032.3625"
       id="text39153-0"
       transform="scale(1,-1)"><tspan
         sodipodi:role="line"
         id="tspan39151-2"
         style="font-size:5px;fill:#e0c3ec;fill-opacity:1;stroke-width:0.75"
         x="137.54118"
         y="-1032.3625">(1) Compare parameters from fitting</tspan><tspan
         sodipodi:role="line"
         style="font-size:5px;fill:#e0c3ec;fill-opacity:1;stroke-width:0.75"
         x="137.54118"
         y="-1026.1125"
         id="tspan93437">      melting curves individually. </tspan></text><text
       xml:space="preserve"
       style="font-size:5px;line-height:1.25;font-family:sans-serif;-inkscape-font-specification:'sans-serif, Normal';letter-spacing:0px;word-spacing:0px;writing-mode:lr-tb;fill:#e0c3ec;fill-opacity:1;stroke-width:0.75"
       x="139.69083"
       y="-983.92419"
       id="text39153-5-4"
       transform="scale(1,-1)"><tspan
         sodipodi:role="line"
         id="tspan39151-4-7"
         style="font-size:5px;fill:#e0c3ec;fill-opacity:1;stroke-width:0.75"
         x="139.69083"
         y="-983.92419">(2) Compare parameters from</tspan><tspan
         sodipodi:role="line"
         style="font-size:5px;fill:#e0c3ec;fill-opacity:1;stroke-width:0.75"
         x="139.69083"
         y="-977.67419"
         id="tspan95071">      methods 1, 2, and 3 </tspan></text><text
       xml:space="preserve"
       style="font-size:5px;line-height:1.25;font-family:sans-serif;-inkscape-font-specification:'sans-serif, Normal';letter-spacing:0px;word-spacing:0px;writing-mode:lr-tb;fill:#e0c3ec;fill-opacity:1;stroke-width:0.75"
       x="158.88162"
       y="-938.54883"
       id="text39153-5-1-6"
       transform="scale(1,-1)"><tspan
         sodipodi:role="line"
         id="tspan39151-4-5-5"
         style="font-size:5px;fill:#e0c3ec;fill-opacity:1;stroke-width:0.75"
         x="158.88162"
         y="-938.54883">(3) Error between methods</tspan></text></g></svg>
